<svg width="29" height="49" viewBox="0 0 29 49" fill="none" xmlns="http://www.w3.org/2000/svg">
<path d="M0 34.1252C0.516362 39.9413 5.27875 44.0687 12.5288 44.6025V48.845H16.1677V44.6025C24.0876 43.978 29 39.5854 29 33.089C29 27.5416 25.696 24.3318 18.6867 22.5245L16.1677 21.8721V8.60719C20.0823 8.99098 22.7234 11.0983 23.3898 14.2453H28.5185C27.9394 8.66302 23.1456 4.65772 16.1677 4.21463V0H12.5288V4.30185C5.76372 5.10431 1.11995 9.43756 1.11995 15.3129C1.11995 20.3858 4.49025 23.9759 10.404 25.4901L12.5322 26.0553V40.1192C8.52346 39.5261 5.76371 37.3281 5.09733 34.1252H0V34.1252ZM11.831 20.7417C8.19201 19.8241 6.24868 17.8633 6.24868 15.1036C6.24868 11.81 8.70488 9.37825 12.5288 8.72582V20.9196L11.831 20.7452V20.7417ZM17.3819 27.273C21.8721 28.3999 23.8434 30.27 23.8434 33.4449C23.8434 37.2723 20.9615 39.8227 16.1677 40.2099V26.9694L17.3819 27.2695V27.273Z" fill="black"/>
</svg>
