<svg width="78" height="60" viewBox="0 0 78 60" fill="none" xmlns="http://www.w3.org/2000/svg">
<path d="M55 6H27C25.9391 6 24.9217 6.39885 24.1716 7.10881C23.4214 7.81877 23 8.78168 23 9.78571V55.2143C23 56.2183 23.4214 57.1812 24.1716 57.8912C24.9217 58.6012 25.9391 59 27 59H55C56.0609 59 57.0783 58.6012 57.8284 57.8912C58.5786 57.1812 59 56.2183 59 55.2143V9.78571C59 8.78168 58.5786 7.81877 57.8284 7.10881C57.0783 6.39885 56.0609 6 55 6ZM27 9.78571H55V43.8571H27V9.78571ZM27 55.2143V47.6429H55V55.2143H27Z" fill="#F8C301"/>
</svg>
