<svg width="58" height="58" viewBox="0 0 58 58" fill="none" xmlns="http://www.w3.org/2000/svg">
<circle cx="28.8704" cy="28.8734" r="28.8704" fill="#108745"/>
<path d="M39.7317 25.2007H37.0917C37.0906 24.1508 36.6731 23.1441 35.9306 22.4017C35.1882 21.6592 34.1815 21.2417 33.1316 21.2406V18.6006C34.8814 18.6027 36.559 19.2987 37.7963 20.536C39.0336 21.7733 39.7296 23.4509 39.7317 25.2007Z" fill="#F8C301"/>
<path d="M45.0118 25.1996H42.3718C42.369 22.7498 41.3946 20.4011 39.6623 18.6689C37.93 16.9366 35.5814 15.9622 33.1316 15.9594V13.3193C36.2814 13.3228 39.3011 14.5756 41.5283 16.8028C43.7555 19.0301 45.0083 22.0498 45.0118 25.1996Z" fill="#F8C301"/>
<path d="M42.3722 46.3207H42.1478C16.2093 44.8291 12.5265 22.943 12.0116 16.2637C11.9312 15.2166 12.27 14.1804 12.9534 13.383C13.6369 12.5857 14.6091 12.0925 15.6562 12.0119C15.761 12.004 15.8661 12 15.9717 12H22.9283C23.457 11.9995 23.9737 12.1578 24.4115 12.4543C24.8492 12.7509 25.1879 13.172 25.3835 13.6632L27.39 18.6001C27.5831 19.08 27.6311 19.6061 27.5278 20.113C27.4246 20.6199 27.1747 21.0853 26.8091 21.4514L23.9975 24.2894C24.4349 26.786 25.6295 29.0877 27.4194 30.8823C29.2093 32.6769 31.5078 33.8777 34.0033 34.3216L36.8677 31.4836C37.2393 31.1221 37.7091 30.878 38.2185 30.7818C38.7279 30.6855 39.2543 30.7414 39.7322 30.9424L44.7087 32.9356C45.1925 33.1374 45.6053 33.4787 45.8944 33.916C46.1836 34.3532 46.336 34.8667 46.3323 35.3909V42.3606C46.3323 43.4109 45.9151 44.4181 45.1724 45.1608C44.4298 45.9035 43.4225 46.3207 42.3722 46.3207ZM15.9717 14.6401C15.7984 14.6395 15.6266 14.6732 15.4663 14.739C15.3059 14.8049 15.1601 14.9017 15.0372 15.0239C14.9142 15.1461 14.8166 15.2913 14.7497 15.4513C14.6829 15.6112 14.6483 15.7828 14.6477 15.9561C14.6477 15.9931 14.6491 16.0296 14.6517 16.0657C15.2589 23.8802 19.153 42.3606 42.293 43.6806C42.6424 43.7016 42.9858 43.5829 43.2477 43.3507C43.5096 43.1185 43.6686 42.7918 43.6896 42.4424L43.6923 42.3606V35.3909L38.7158 33.3976L34.9273 37.1597L34.2937 37.0805C22.8095 35.6417 21.2518 24.1574 21.2518 24.0386L21.1726 23.405L24.9215 19.6166L22.9415 14.6401H15.9717Z" fill="#F8C301"/>
</svg>
