<svg width="58" height="58" viewBox="0 0 58 58" fill="none" xmlns="http://www.w3.org/2000/svg">
<circle cx="28.8704" cy="28.8734" r="28.8704" fill="#108745"/>
<path d="M28.6056 9C24.4683 9.00479 20.5017 10.6211 17.5762 13.4945C14.6506 16.3678 13.0049 20.2635 13 24.327C12.9951 27.6477 14.0995 30.8782 16.1438 33.5231C16.1438 33.5231 16.5694 34.0735 16.639 34.1529L28.6056 48.0141L40.578 34.146C40.6404 34.0721 41.0674 33.5231 41.0674 33.5231L41.0688 33.519C43.1122 30.8752 44.2161 27.6461 44.2113 24.327C44.2064 20.2635 42.5606 16.3678 39.6351 13.4945C36.7095 10.6211 32.743 9.00479 28.6056 9ZM28.6056 29.9004C27.4833 29.9004 26.3861 29.5735 25.4529 28.9611C24.5197 28.3487 23.7923 27.4782 23.3628 26.4598C22.9333 25.4414 22.8209 24.3208 23.0399 23.2396C23.2589 22.1585 23.7993 21.1654 24.593 20.3859C25.3866 19.6065 26.3977 19.0757 27.4985 18.8606C28.5993 18.6456 29.7403 18.7559 30.7773 19.1778C31.8142 19.5996 32.7005 20.314 33.324 21.2305C33.9476 22.1471 34.2804 23.2246 34.2804 24.327C34.2785 25.8046 33.68 27.2211 32.6162 28.2659C31.5524 29.3108 30.1101 29.8986 28.6056 29.9004Z" fill="#F8C301"/>
</svg>
