<svg width="508" height="512" viewBox="0 0 508 512" fill="none" xmlns="http://www.w3.org/2000/svg">
<path d="M332.516 134.809C332.516 113.922 324.219 93.8906 309.45 79.1246C294.684 64.3546 274.653 56.0586 253.766 56.0586C232.879 56.0586 212.848 64.3555 198.082 79.1246C183.312 93.8906 175.016 113.922 175.016 134.809C175.016 155.696 183.313 175.727 198.082 190.493C212.848 205.263 232.879 213.559 253.766 213.559C274.645 213.535 294.661 205.23 309.426 190.469C324.188 175.703 332.492 155.688 332.516 134.809V134.809ZM192.516 134.809C192.516 118.563 198.969 102.985 210.457 91.4996C221.941 80.0116 237.519 73.5586 253.766 73.5586C270.013 73.5586 285.59 80.0117 297.075 91.4996C308.563 102.984 315.016 118.562 315.016 134.809C315.016 151.056 308.563 166.633 297.075 178.118C285.591 189.606 270.013 196.059 253.766 196.059C237.528 196.039 221.957 189.582 210.477 178.098C198.993 166.618 192.536 151.047 192.516 134.809ZM441.676 211.618C440.77 207.633 437.223 204.805 433.137 204.809H383.34C390.988 182.243 395.094 158.629 395.512 134.809C395.512 93.125 383.008 60.129 358.36 36.739C318.11 -1.409 259.993 -0.144007 253.76 0.0589925C247.529 -0.167567 189.405 -1.43711 149.16 36.739C124.512 60.153 112.008 93.149 112.008 134.809C112.426 158.629 116.531 182.243 124.18 204.809H83.1328C79.1406 204.805 75.6523 207.504 74.6523 211.371L0.277337 500.122C-0.398443 502.743 0.175778 505.532 1.83594 507.668C3.49614 509.809 6.05074 511.063 8.75784 511.059H498.758C501.422 511.063 503.941 509.852 505.602 507.77C507.266 505.688 507.891 502.965 507.297 500.368L441.676 211.618ZM452 336.058H364.598L425.262 222.308H426.137L452 336.058ZM161.12 49.5476C192.718 19.4856 239.214 17.5596 250.686 17.5596H253.311C253.6 17.5752 253.893 17.5752 254.186 17.5596C254.78 17.5596 310.291 15.1963 346.385 49.5326C367.385 69.4896 377.99 98.1806 377.99 134.818C377.99 234.13 280.146 356.308 253.74 387.468C227.357 356.327 129.51 234.148 129.51 134.808C129.51 98.1986 140.143 69.5066 161.115 49.5456L161.12 49.5476ZM247.28 406.718C248.94 408.55 251.296 409.593 253.764 409.593C256.233 409.593 258.589 408.55 260.249 406.718C264.475 402.053 341.159 316.417 377.139 222.308H405.436L342.288 340.688C340.839 343.402 340.921 346.676 342.506 349.313C344.088 351.949 346.94 353.563 350.014 353.559H455.014C455.327 353.516 455.635 353.453 455.94 353.375L463.94 388.559H306.26C301.428 388.559 297.51 392.477 297.51 397.309V493.559H210.01V397.309C210.01 394.989 209.088 392.762 207.448 391.122C205.807 389.481 203.58 388.559 201.26 388.559H47.0901L56.1018 353.559H157.512C160.586 353.563 163.438 351.95 165.02 349.313C166.605 346.676 166.688 343.403 165.238 340.688L102.097 222.308H130.386C166.366 316.413 243.046 402.048 247.276 406.718L247.28 406.718ZM87.4299 231.998L142.93 336.058H60.6249L87.4299 231.998ZM42.6569 405.838C43.0202 405.939 43.3913 406.017 43.7663 406.064H192.516V493.564H20.0563L42.6569 405.838ZM315.017 493.565V406.065H467.917L487.808 493.565H315.017Z" fill="#981616"/>
</svg>
