<svg width="46" height="46" viewBox="0 0 46 46" fill="none" xmlns="http://www.w3.org/2000/svg">
<path d="M38.5499 6.59283C36.4708 4.49449 33.995 2.83092 31.2665 1.69906C28.5381 0.567196 25.6116 -0.0103291 22.6578 0.00013982C10.2802 0.00013982 0.192735 10.0847 0.181398 22.4652C0.181398 26.4304 1.21877 30.2879 3.1773 33.7033L0 45.3497L11.9156 42.2262C15.2119 44.0201 18.9049 44.9604 22.6578 44.9613H22.6691C35.0495 44.9613 45.1341 34.8768 45.1454 22.485C45.1483 19.5317 44.5667 16.6071 43.4343 13.8796C42.3018 11.1521 40.6409 8.67559 38.5471 6.59283H38.5499ZM22.6578 41.1577C19.3104 41.1588 16.0245 40.258 13.1457 38.5501L12.4654 38.1419L5.39659 39.9956L7.28427 33.0996L6.84211 32.3882C4.97089 29.4131 3.98125 25.9685 3.98792 22.4538C3.98792 12.1765 12.3691 3.79249 22.6691 3.79249C25.1229 3.78809 27.5533 4.26944 29.8202 5.20879C32.0871 6.14814 34.1456 7.52691 35.8771 9.26561C37.6147 10.9975 38.9921 13.0563 39.93 15.3233C40.8679 17.5902 41.3477 20.0204 41.3418 22.4737C41.3304 32.7878 32.9493 41.1577 22.6578 41.1577V41.1577ZM32.9039 27.173C32.3455 26.8924 29.5877 25.5348 29.069 25.342C28.5532 25.1578 28.1762 25.0614 27.8078 25.6226C27.4308 26.181 26.3537 27.4536 26.0306 27.8192C25.7075 28.1962 25.3731 28.2387 24.8119 27.9609C24.2535 27.6775 22.4423 27.088 20.2996 25.1691C18.6273 23.6811 17.5077 21.8388 17.1733 21.2804C16.8502 20.7192 17.1421 20.4188 17.4227 20.1382C17.6693 19.8887 17.9811 19.4806 18.2617 19.1575C18.5451 18.8344 18.6386 18.5963 18.8229 18.2221C19.0071 17.8423 18.9193 17.5192 18.7804 17.2386C18.6387 16.958 17.5191 14.1889 17.0457 13.0721C16.5923 11.9696 16.1303 12.1226 15.7845 12.1085C15.4613 12.0886 15.0844 12.0886 14.7074 12.0886C14.4227 12.0957 14.1426 12.1615 13.8846 12.282C13.6266 12.4025 13.3962 12.575 13.208 12.7887C12.6922 13.3499 11.2495 14.7076 11.2495 17.4767C11.2495 20.2459 13.2619 22.9073 13.5453 23.2843C13.8231 23.6612 17.4964 29.3271 23.1339 31.7646C24.4661 32.3457 25.5148 32.6886 26.3339 32.9494C27.6802 33.3802 28.8961 33.315 29.8655 33.1761C30.9425 33.0118 33.1845 31.8157 33.6578 30.5034C34.1227 29.1882 34.1227 28.0658 33.981 27.8306C33.8421 27.5925 33.4651 27.4536 32.9039 27.173V27.173Z" fill="#F8C301"/>
</svg>
