<svg width="255" height="101" viewBox="0 0 255 101" fill="none" xmlns="http://www.w3.org/2000/svg">
<path fill-rule="evenodd" clip-rule="evenodd" d="M145.701 9.78392L161.972 13.8519V26.4847L192.719 28.2161C193.245 19.9521 189.904 11.5653 182.989 5.94213C171.631 -3.29377 154.937 -1.57381 145.701 9.78392V9.78392Z" fill="#F8C301"/>
<path d="M3.61912 64.185L5.73791 63.8944C5.79442 65.2505 6.04867 66.1787 6.50068 66.6791C6.95269 67.1796 7.57824 67.4298 8.37733 67.4298C8.96655 67.4298 9.47506 67.2966 9.90286 67.0302C10.3307 66.7558 10.6253 66.3885 10.7867 65.9285C10.9481 65.4603 11.0288 64.7177 11.0288 63.7007V51.4722H13.3777V63.5675C13.3777 65.0527 13.1961 66.2029 12.8328 67.0181C12.4777 67.8334 11.9086 68.4549 11.1257 68.8827C10.3508 69.3105 9.43874 69.5244 8.38943 69.5244C6.83162 69.5244 5.63702 69.0764 4.80565 68.1804C3.98234 67.2845 3.58683 65.9527 3.61912 64.185ZM16.1261 62.7927C16.1261 60.4115 16.7879 58.6479 18.1117 57.5017C19.2175 56.5493 20.5654 56.0731 22.1555 56.0731C23.9232 56.0731 25.368 56.6542 26.49 57.8165C27.6119 58.9708 28.1729 60.5689 28.1729 62.611C28.1729 64.2657 27.9227 65.5693 27.4223 66.5217C26.9299 67.4661 26.2075 68.2006 25.255 68.7253C24.3107 69.2499 23.2775 69.5123 22.1555 69.5123C20.3556 69.5123 18.8986 68.9351 17.7848 67.7809C16.679 66.6267 16.1261 64.9639 16.1261 62.7927ZM18.3659 62.7927C18.3659 64.4393 18.7251 65.6742 19.4435 66.4975C20.1619 67.3127 21.0659 67.7204 22.1555 67.7204C23.2371 67.7204 24.1371 67.3087 24.8555 66.4854C25.5739 65.6621 25.933 64.407 25.933 62.72C25.933 61.1299 25.5698 59.9272 24.8434 59.112C24.125 58.2887 23.2291 57.8771 22.1555 57.8771C21.0659 57.8771 20.1619 58.2847 19.4435 59.0999C18.7251 59.9151 18.3659 61.146 18.3659 62.7927ZM30.7155 69.2217V56.3636H32.6769V58.3129C33.1773 57.4008 33.6374 56.7995 34.0571 56.5089C34.4849 56.2183 34.9531 56.0731 35.4616 56.0731C36.1961 56.0731 36.9427 56.3071 37.7014 56.7753L36.9508 58.7972C36.418 58.4824 35.8853 58.325 35.3526 58.325C34.8764 58.325 34.4486 58.4703 34.0692 58.7609C33.6898 59.0434 33.4194 59.4389 33.258 59.9474C33.0159 60.7223 32.8948 61.5698 32.8948 62.49V69.2217H30.7155ZM38.5974 70.2871L40.7162 70.6019C40.805 71.2557 41.0511 71.7319 41.4547 72.0306C41.9955 72.4342 42.7341 72.636 43.6704 72.636C44.6793 72.636 45.4582 72.4342 46.0071 72.0306C46.556 71.627 46.9273 71.062 47.121 70.3356C47.234 69.8916 47.2864 68.9594 47.2784 67.5388C46.3259 68.6607 45.1394 69.2217 43.7188 69.2217C41.9511 69.2217 40.583 68.584 39.6144 67.3087C38.6458 66.0334 38.1615 64.5038 38.1615 62.72C38.1615 61.4931 38.3835 60.3631 38.8274 59.3299C39.2714 58.2887 39.913 57.4856 40.7525 56.9206C41.6 56.3556 42.5928 56.0731 43.7309 56.0731C45.2484 56.0731 46.4995 56.6865 47.4842 57.9134V56.3636H49.494V67.4782C49.494 69.48 49.2882 70.8965 48.8766 71.7279C48.473 72.5674 47.8272 73.2292 46.9394 73.7135C46.0596 74.1978 44.9739 74.44 43.6825 74.44C42.1489 74.44 40.9099 74.0929 39.9655 73.3987C39.0211 72.7126 38.5651 71.6754 38.5974 70.2871ZM40.4014 62.5626C40.4014 64.2496 40.7363 65.4805 41.4063 66.2554C42.0762 67.0302 42.9157 67.4177 43.9246 67.4177C44.9255 67.4177 45.765 67.0343 46.443 66.2675C47.121 65.4926 47.46 64.2819 47.46 62.6353C47.46 61.0613 47.1089 59.8748 46.4066 59.0757C45.7125 58.2766 44.873 57.8771 43.8883 57.8771C42.9197 57.8771 42.0964 58.2726 41.4184 59.0636C40.7404 59.8465 40.4014 61.0129 40.4014 62.5626ZM61.6014 65.081L63.8534 65.3594C63.4982 66.6751 62.8404 67.6961 61.8799 68.4226C60.9194 69.149 59.6925 69.5123 58.1992 69.5123C56.3186 69.5123 54.8253 68.9351 53.7195 67.7809C52.6218 66.6186 52.0729 64.9922 52.0729 62.9016C52.0729 60.7384 52.6298 59.0595 53.7437 57.8649C54.8576 56.6704 56.3024 56.0731 58.0782 56.0731C59.7974 56.0731 61.2019 56.6582 62.2915 57.8286C63.3812 58.999 63.926 60.6456 63.926 62.7684C63.926 62.8976 63.922 63.0913 63.9139 63.3496H54.3249C54.4056 64.7621 54.8051 65.8437 55.5235 66.5944C56.2419 67.345 57.1378 67.7204 58.2114 67.7204C59.0104 67.7204 59.6925 67.5105 60.2575 67.0908C60.8225 66.6711 61.2705 66.0011 61.6014 65.081ZM54.446 61.5577H61.6256C61.5288 60.4761 61.2543 59.6649 60.8023 59.1241C60.1082 58.2847 59.2082 57.8649 58.1024 57.8649C57.1015 57.8649 56.258 58.1999 55.5719 58.8699C54.8939 59.5398 54.5186 60.4357 54.446 61.5577ZM70.4519 69.2217L77.2684 51.4722H79.7988L87.0633 69.2217H84.3875L82.3172 63.846H74.8953L72.946 69.2217H70.4519ZM75.5733 61.933H81.5907L79.7383 57.0174C79.1733 55.5242 78.7536 54.2973 78.4791 53.3368C78.2531 54.4749 77.9343 55.6049 77.5226 56.7269L75.5733 61.933ZM88.613 69.2217V51.4722H90.7923V69.2217H88.613ZM96.1922 69.2217H94.1703V51.4722H96.3496V57.8044C97.2698 56.6502 98.4442 56.0731 99.8729 56.0731C100.664 56.0731 101.411 56.2345 102.113 56.5573C102.823 56.8721 103.404 57.3201 103.856 57.9013C104.316 58.4744 104.675 59.1685 104.934 59.9837C105.192 60.799 105.321 61.6707 105.321 62.5989C105.321 64.8025 104.776 66.5056 103.687 67.7083C102.597 68.9109 101.289 69.5123 99.7639 69.5123C98.2465 69.5123 97.0559 68.8786 96.1922 67.6114V69.2217ZM96.168 62.6958C96.168 64.2375 96.3779 65.3514 96.7976 66.0374C97.4837 67.1594 98.4119 67.7204 99.5823 67.7204C100.535 67.7204 101.358 67.3087 102.052 66.4854C102.746 65.654 103.093 64.4191 103.093 62.7805C103.093 61.1017 102.758 59.8627 102.089 59.0636C101.427 58.2645 100.624 57.8649 99.6792 57.8649C98.7267 57.8649 97.9034 58.2806 97.2093 59.112C96.5151 59.9353 96.168 61.1299 96.168 62.6958ZM116.787 65.081L119.039 65.3594C118.684 66.6751 118.026 67.6961 117.065 68.4226C116.105 69.149 114.878 69.5123 113.385 69.5123C111.504 69.5123 110.011 68.9351 108.905 67.7809C107.807 66.6186 107.258 64.9922 107.258 62.9016C107.258 60.7384 107.815 59.0595 108.929 57.8649C110.043 56.6704 111.488 56.0731 113.264 56.0731C114.983 56.0731 116.387 56.6582 117.477 57.8286C118.567 58.999 119.112 60.6456 119.112 62.7684C119.112 62.8976 119.107 63.0913 119.099 63.3496H109.51C109.591 64.7621 109.991 65.8437 110.709 66.5944C111.427 67.345 112.323 67.7204 113.397 67.7204C114.196 67.7204 114.878 67.5105 115.443 67.0908C116.008 66.6711 116.456 66.0011 116.787 65.081ZM109.631 61.5577H116.811C116.714 60.4761 116.44 59.6649 115.988 59.1241C115.294 58.2847 114.394 57.8649 113.288 57.8649C112.287 57.8649 111.444 58.1999 110.757 58.8699C110.079 59.5398 109.704 60.4357 109.631 61.5577ZM121.763 69.2217V56.3636H123.724V58.3129C124.225 57.4008 124.685 56.7995 125.105 56.5089C125.532 56.2183 126.001 56.0731 126.509 56.0731C127.244 56.0731 127.99 56.3071 128.749 56.7753L127.998 58.7972C127.466 58.4824 126.933 58.325 126.4 58.325C125.924 58.325 125.496 58.4703 125.117 58.7609C124.737 59.0434 124.467 59.4389 124.306 59.9474C124.063 60.7223 123.942 61.5698 123.942 62.49V69.2217H121.763ZM134.803 67.2724L135.118 69.1975C134.504 69.3266 133.955 69.3912 133.471 69.3912C132.68 69.3912 132.066 69.2661 131.631 69.0159C131.195 68.7656 130.888 68.4387 130.71 68.0352C130.533 67.6235 130.444 66.7639 130.444 65.4563V58.0587H128.846V56.3636H130.444V53.1794L132.611 51.8718V56.3636H134.803V58.0587H132.611V65.5774C132.611 66.1989 132.648 66.5984 132.72 66.776C132.801 66.9536 132.926 67.0948 133.096 67.1997C133.273 67.3047 133.523 67.3571 133.846 67.3571C134.088 67.3571 134.407 67.3289 134.803 67.2724ZM136.135 62.7927C136.135 60.4115 136.796 58.6479 138.12 57.5017C139.226 56.5493 140.574 56.0731 142.164 56.0731C143.932 56.0731 145.376 56.6542 146.498 57.8165C147.62 58.9708 148.181 60.5689 148.181 62.611C148.181 64.2657 147.931 65.5693 147.431 66.5217C146.938 67.4661 146.216 68.2006 145.263 68.7253C144.319 69.2499 143.286 69.5123 142.164 69.5123C140.364 69.5123 138.907 68.9351 137.793 67.7809C136.687 66.6267 136.135 64.9639 136.135 62.7927ZM138.374 62.7927C138.374 64.4393 138.734 65.6742 139.452 66.4975C140.17 67.3127 141.074 67.7204 142.164 67.7204C143.246 67.7204 144.146 67.3087 144.864 66.4854C145.582 65.6621 145.942 64.407 145.942 62.72C145.942 61.1299 145.578 59.9272 144.852 59.112C144.133 58.2887 143.238 57.8771 142.164 57.8771C141.074 57.8771 140.17 58.2847 139.452 59.0999C138.734 59.9151 138.374 61.146 138.374 62.7927ZM157.129 63.5191L159.344 63.3254C159.449 64.2133 159.691 64.9437 160.071 65.5168C160.458 66.0818 161.056 66.5419 161.863 66.8971C162.67 67.2441 163.578 67.4177 164.587 67.4177C165.483 67.4177 166.274 67.2845 166.96 67.0181C167.646 66.7518 168.155 66.3885 168.485 65.9285C168.824 65.4603 168.994 64.9518 168.994 64.4029C168.994 63.846 168.833 63.3617 168.51 62.9501C168.187 62.5303 167.654 62.1792 166.912 61.8967C166.435 61.7111 165.382 61.4245 163.751 61.0371C162.121 60.6416 160.979 60.2703 160.325 59.9232C159.478 59.4793 158.844 58.9304 158.424 58.2766C158.013 57.6147 157.807 56.8762 157.807 56.0609C157.807 55.165 158.061 54.3296 158.57 53.5547C159.078 52.7718 159.821 52.1785 160.797 51.7749C161.774 51.3713 162.86 51.1696 164.054 51.1696C165.37 51.1696 166.528 51.3835 167.529 51.8113C168.538 52.231 169.313 52.8525 169.854 53.6758C170.394 54.4991 170.685 55.4314 170.725 56.4726L168.473 56.6421C168.352 55.5201 167.941 54.6726 167.238 54.0995C166.544 53.5265 165.515 53.2399 164.151 53.2399C162.73 53.2399 161.693 53.5022 161.039 54.0269C160.394 54.5435 160.071 55.169 160.071 55.9035C160.071 56.5412 160.301 57.0659 160.761 57.4775C161.213 57.8892 162.391 58.3129 164.296 58.7488C166.209 59.1766 167.521 59.5519 168.231 59.8748C169.264 60.351 170.027 60.9564 170.52 61.6909C171.012 62.4173 171.258 63.2568 171.258 64.2092C171.258 65.1536 170.988 66.0455 170.447 66.885C169.906 67.7163 169.127 68.3661 168.11 68.8342C167.101 69.2943 165.963 69.5244 164.696 69.5244C163.09 69.5244 161.742 69.2903 160.652 68.8221C159.57 68.354 158.719 67.6518 158.097 66.7154C157.484 65.7711 157.161 64.7056 157.129 63.5191ZM182.578 64.5119L184.721 64.7904C184.487 66.2675 183.886 67.4257 182.917 68.2652C181.957 69.0966 180.774 69.5123 179.37 69.5123C177.61 69.5123 176.194 68.9392 175.12 67.793C174.055 66.6388 173.522 64.9881 173.522 62.8411C173.522 61.4528 173.752 60.238 174.212 59.1968C174.672 58.1555 175.371 57.3766 176.307 56.86C177.251 56.3354 178.276 56.0731 179.382 56.0731C180.779 56.0731 181.921 56.4282 182.809 57.1385C183.696 57.8407 184.265 58.8416 184.516 60.1411L182.397 60.468C182.195 59.6044 181.836 58.9546 181.319 58.5187C180.811 58.0829 180.193 57.8649 179.467 57.8649C178.369 57.8649 177.477 58.2605 176.791 59.0515C176.105 59.8344 175.762 61.0774 175.762 62.7805C175.762 64.5079 176.093 65.763 176.755 66.5459C177.417 67.3289 178.28 67.7204 179.346 67.7204C180.201 67.7204 180.916 67.458 181.489 66.9334C182.062 66.4087 182.425 65.6016 182.578 64.5119ZM185.775 62.7927C185.775 60.4115 186.437 58.6479 187.76 57.5017C188.866 56.5493 190.214 56.0731 191.804 56.0731C193.572 56.0731 195.017 56.6542 196.139 57.8165C197.261 58.9708 197.822 60.5689 197.822 62.611C197.822 64.2657 197.571 65.5693 197.071 66.5217C196.579 67.4661 195.856 68.2006 194.904 68.7253C193.959 69.2499 192.926 69.5123 191.804 69.5123C190.004 69.5123 188.547 68.9351 187.434 67.7809C186.328 66.6267 185.775 64.9639 185.775 62.7927ZM188.015 62.7927C188.015 64.4393 188.374 65.6742 189.092 66.4975C189.811 67.3127 190.715 67.7204 191.804 67.7204C192.886 67.7204 193.786 67.3087 194.504 66.4854C195.223 65.6621 195.582 64.407 195.582 62.72C195.582 61.1299 195.219 59.9272 194.492 59.112C193.774 58.2887 192.878 57.8771 191.804 57.8771C190.715 57.8771 189.811 58.2847 189.092 59.0999C188.374 59.9151 188.015 61.146 188.015 62.7927ZM200.364 69.2217V56.3636H202.326V58.3129C202.826 57.4008 203.286 56.7995 203.706 56.5089C204.134 56.2183 204.602 56.0731 205.11 56.0731C205.845 56.0731 206.591 56.3071 207.35 56.7753L206.6 58.7972C206.067 58.4824 205.534 58.325 205.001 58.325C204.525 58.325 204.097 58.4703 203.718 58.7609C203.339 59.0434 203.068 59.4389 202.907 59.9474C202.665 60.7223 202.544 61.5698 202.544 62.49V69.2217H200.364ZM217.036 64.5119L219.179 64.7904C218.945 66.2675 218.344 67.4257 217.375 68.2652C216.415 69.0966 215.232 69.5123 213.828 69.5123C212.068 69.5123 210.651 68.9392 209.578 67.793C208.513 66.6388 207.98 64.9881 207.98 62.8411C207.98 61.4528 208.21 60.238 208.67 59.1968C209.13 58.1555 209.828 57.3766 210.764 56.86C211.709 56.3354 212.734 56.0731 213.84 56.0731C215.236 56.0731 216.378 56.4282 217.266 57.1385C218.154 57.8407 218.723 58.8416 218.973 60.1411L216.855 60.468C216.653 59.6044 216.294 58.9546 215.777 58.5187C215.268 58.0829 214.651 57.8649 213.925 57.8649C212.827 57.8649 211.935 58.2605 211.249 59.0515C210.563 59.8344 210.22 61.0774 210.22 62.7805C210.22 64.5079 210.551 65.763 211.212 66.5459C211.874 67.3289 212.738 67.7204 213.803 67.7204C214.659 67.7204 215.373 67.458 215.946 66.9334C216.52 66.4087 216.883 65.6016 217.036 64.5119ZM229.846 65.081L232.098 65.3594C231.743 66.6751 231.085 67.6961 230.124 68.4226C229.164 69.149 227.937 69.5123 226.444 69.5123C224.563 69.5123 223.07 68.9351 221.964 67.7809C220.866 66.6186 220.317 64.9922 220.317 62.9016C220.317 60.7384 220.874 59.0595 221.988 57.8649C223.102 56.6704 224.547 56.0731 226.322 56.0731C228.042 56.0731 229.446 56.6582 230.536 57.8286C231.626 58.999 232.17 60.6456 232.17 62.7684C232.17 62.8976 232.166 63.0913 232.158 63.3496H222.569C222.65 64.7621 223.049 65.8437 223.768 66.5944C224.486 67.345 225.382 67.7204 226.456 67.7204C227.255 67.7204 227.937 67.5105 228.502 67.0908C229.067 66.6711 229.515 66.0011 229.846 65.081ZM222.69 61.5577H229.87C229.773 60.4761 229.499 59.6649 229.047 59.1241C228.352 58.2847 227.453 57.8649 226.347 57.8649C225.346 57.8649 224.502 58.1999 223.816 58.8699C223.138 59.5398 222.763 60.4357 222.69 61.5577ZM234.798 69.2217V51.4722H236.977V69.2217H234.798ZM240.319 69.2217V51.4722H242.498V69.2217H240.319ZM245.9 53.9785V51.4722H248.079V53.9785H245.9ZM245.9 69.2217V56.3636H248.079V69.2217H245.9Z" fill="black"/>
<path d="M63.0515 95.0811V86.1451H66.4223C67.0155 86.1451 67.4686 86.1736 67.7815 86.2304C68.2204 86.3036 68.5882 86.4438 68.8848 86.651C69.1815 86.8542 69.4192 87.1407 69.598 87.5105C69.7809 87.8803 69.8723 88.2866 69.8723 88.7296C69.8723 89.4895 69.6305 90.1336 69.1469 90.6618C68.6634 91.1861 67.7897 91.4482 66.5259 91.4482H64.234V95.0811H63.0515ZM64.234 90.3936H66.5442C67.3081 90.3936 67.8506 90.2514 68.1717 89.967C68.4927 89.6825 68.6532 89.2822 68.6532 88.7662C68.6532 88.3923 68.5577 88.0733 68.3667 87.8092C68.1798 87.541 67.9319 87.3642 67.6231 87.2789C67.4239 87.226 67.0562 87.1996 66.5198 87.1996H64.234V90.3936ZM71.3962 95.0811V86.1451H75.3582C76.1547 86.1451 76.7602 86.2264 77.1746 86.3889C77.5891 86.5474 77.9203 86.8298 78.1682 87.2362C78.4161 87.6426 78.54 88.0916 78.54 88.5833C78.54 89.2172 78.3348 89.7516 77.9244 90.1864C77.514 90.6212 76.88 90.8975 76.0226 91.0154C76.3355 91.1657 76.5732 91.3141 76.7358 91.4603C77.0812 91.7773 77.4083 92.1735 77.7171 92.649L79.2715 95.0811H77.7842L76.6017 93.2219C76.2563 92.6855 75.9718 92.2751 75.7483 91.9907C75.5248 91.7062 75.3237 91.5071 75.1449 91.3933C74.9701 91.2795 74.7913 91.2003 74.6085 91.1556C74.4744 91.1271 74.2549 91.1129 73.9502 91.1129H72.5787V95.0811H71.3962ZM72.5787 90.0889H75.1205C75.6609 90.0889 76.0836 90.034 76.3883 89.9243C76.6931 89.8105 76.9247 89.6317 77.0832 89.3879C77.2417 89.14 77.3209 88.8718 77.3209 88.5833C77.3209 88.1607 77.1665 87.8132 76.8577 87.541C76.5529 87.2687 76.0693 87.1326 75.407 87.1326H72.5787V90.0889ZM80.0395 90.7289C80.0395 89.2457 80.4378 88.0855 81.2342 87.2484C82.0307 86.4072 83.0588 85.9866 84.3185 85.9866C85.1435 85.9866 85.8871 86.1837 86.5495 86.5779C87.2118 86.9721 87.7157 87.5227 88.0611 88.2298C88.4106 88.9328 88.5854 89.7313 88.5854 90.6253C88.5854 91.5315 88.4025 92.3422 88.0368 93.0574C87.671 93.7726 87.1529 94.3151 86.4824 94.6848C85.8119 95.0506 85.0886 95.2334 84.3124 95.2334C83.4713 95.2334 82.7195 95.0303 82.0571 94.6239C81.3947 94.2175 80.8929 93.6628 80.5515 92.9598C80.2102 92.2568 80.0395 91.5132 80.0395 90.7289ZM81.2586 90.7472C81.2586 91.824 81.5471 92.6733 82.1242 93.2951C82.7053 93.9128 83.4327 94.2216 84.3063 94.2216C85.1963 94.2216 85.9277 93.9087 86.5007 93.2829C87.0777 92.6571 87.3663 91.7692 87.3663 90.6192C87.3663 89.8918 87.2423 89.2579 86.9944 88.7174C86.7506 88.1729 86.391 87.7523 85.9155 87.4556C85.4442 87.1549 84.9139 87.0046 84.3246 87.0046C83.4875 87.0046 82.7662 87.2931 82.1607 87.8701C81.5593 88.4431 81.2586 89.4021 81.2586 90.7472ZM90.1153 95.0811V86.1451H93.4861C94.0794 86.1451 94.5325 86.1736 94.8454 86.2304C95.2843 86.3036 95.652 86.4438 95.9487 86.651C96.2453 86.8542 96.483 87.1407 96.6618 87.5105C96.8447 87.8803 96.9361 88.2866 96.9361 88.7296C96.9361 89.4895 96.6944 90.1336 96.2108 90.6618C95.7272 91.1861 94.8535 91.4482 93.5897 91.4482H91.2978V95.0811H90.1153ZM91.2978 90.3936H93.608C94.372 90.3936 94.9145 90.2514 95.2355 89.967C95.5565 89.6825 95.717 89.2822 95.717 88.7662C95.717 88.3923 95.6216 88.0733 95.4306 87.8092C95.2436 87.541 94.9958 87.3642 94.6869 87.2789C94.4878 87.226 94.12 87.1996 93.5836 87.1996H91.2978V90.3936ZM98.6429 95.0811V86.1451H99.8254V95.0811H98.6429ZM101.941 95.0811V86.1451H108.402V87.1996H103.123V89.9365H108.066V90.9849H103.123V94.0265H108.609V95.0811H101.941ZM110.243 95.0811V86.1451H113.321C114.016 86.1451 114.546 86.1878 114.912 86.2731C115.424 86.391 115.861 86.6043 116.222 86.9131C116.694 87.3114 117.045 87.8214 117.277 88.4431C117.512 89.0608 117.63 89.7678 117.63 90.5643C117.63 91.2429 117.551 91.8444 117.393 92.3686C117.234 92.8928 117.031 93.3276 116.783 93.673C116.535 94.0143 116.263 94.2846 115.966 94.4837C115.674 94.6788 115.318 94.8271 114.899 94.9287C114.485 95.0303 114.008 95.0811 113.467 95.0811H110.243ZM111.425 94.0265H113.333C113.922 94.0265 114.383 93.9717 114.717 93.862C115.054 93.7522 115.322 93.5978 115.521 93.3987C115.802 93.1183 116.019 92.7424 116.173 92.271C116.332 91.7956 116.411 91.2206 116.411 90.546C116.411 89.6114 116.257 88.8942 115.948 88.3943C115.643 87.8904 115.271 87.5532 114.832 87.3825C114.515 87.2606 114.005 87.1996 113.302 87.1996H111.425V94.0265ZM118.282 95.0811L121.714 86.1451H122.988L126.645 95.0811H125.298L124.256 92.3747H120.519L119.538 95.0811H118.282ZM120.861 91.4116H123.89L122.958 88.9368C122.673 88.1851 122.462 87.5674 122.324 87.0838C122.21 87.6568 122.049 88.2257 121.842 88.7905L120.861 91.4116ZM127.59 95.0811V86.1451H130.668C131.363 86.1451 131.894 86.1878 132.259 86.2731C132.771 86.391 133.208 86.6043 133.57 86.9131C134.041 87.3114 134.393 87.8214 134.624 88.4431C134.86 89.0608 134.978 89.7678 134.978 90.5643C134.978 91.2429 134.899 91.8444 134.74 92.3686C134.582 92.8928 134.379 93.3276 134.131 93.673C133.883 94.0143 133.611 94.2846 133.314 94.4837C133.021 94.6788 132.666 94.8271 132.247 94.9287C131.833 95.0303 131.355 95.0811 130.815 95.0811H127.59ZM128.773 94.0265H130.681C131.27 94.0265 131.731 93.9717 132.064 93.862C132.402 93.7522 132.67 93.5978 132.869 93.3987C133.149 93.1183 133.367 92.7424 133.521 92.271C133.68 91.7956 133.759 91.2206 133.759 90.546C133.759 89.6114 133.604 88.8942 133.296 88.3943C132.991 87.8904 132.619 87.5532 132.18 87.3825C131.863 87.2606 131.353 87.1996 130.65 87.1996H128.773V94.0265ZM136.636 95.0811V86.1451H143.097V87.1996H137.818V89.9365H142.762V90.9849H137.818V94.0265H143.304V95.0811H136.636ZM144.536 92.2101L145.651 92.1126C145.704 92.5596 145.826 92.9273 146.017 93.2158C146.212 93.5003 146.513 93.7319 146.919 93.9107C147.325 94.0855 147.782 94.1728 148.29 94.1728C148.741 94.1728 149.14 94.1058 149.485 93.9717C149.831 93.8376 150.087 93.6547 150.253 93.4231C150.424 93.1874 150.509 92.9314 150.509 92.6551C150.509 92.3747 150.428 92.1309 150.265 91.9236C150.103 91.7123 149.835 91.5355 149.461 91.3933C149.221 91.2998 148.691 91.1556 147.87 90.9605C147.049 90.7614 146.474 90.5745 146.145 90.3997C145.718 90.1762 145.399 89.8999 145.188 89.5708C144.981 89.2375 144.877 88.8657 144.877 88.4553C144.877 88.0042 145.005 87.5836 145.261 87.1935C145.517 86.7994 145.891 86.5007 146.383 86.2975C146.874 86.0943 147.421 85.9927 148.022 85.9927C148.685 85.9927 149.268 86.1004 149.772 86.3158C150.28 86.5271 150.67 86.84 150.942 87.2545C151.214 87.669 151.36 88.1383 151.381 88.6625L150.247 88.7479C150.186 88.183 149.979 87.7563 149.625 87.4678C149.276 87.1793 148.758 87.035 148.071 87.035C147.356 87.035 146.834 87.1671 146.504 87.4312C146.179 87.6913 146.017 88.0063 146.017 88.376C146.017 88.6971 146.133 88.9612 146.364 89.1685C146.592 89.3757 147.185 89.589 148.144 89.8085C149.107 90.0239 149.768 90.2128 150.125 90.3754C150.645 90.6151 151.029 90.9199 151.277 91.2897C151.525 91.6554 151.649 92.078 151.649 92.5575C151.649 93.033 151.513 93.482 151.241 93.9046C150.968 94.3232 150.576 94.6503 150.064 94.886C149.556 95.1176 148.983 95.2334 148.345 95.2334C147.537 95.2334 146.858 95.1156 146.309 94.8799C145.765 94.6442 145.336 94.2907 145.023 93.8193C144.714 93.3438 144.552 92.8074 144.536 92.2101Z" fill="black"/>
<path d="M0 79.1377L254.072 79.1377" stroke="black" stroke-width="1.35599" stroke-miterlimit="22.9256"/>
<path fill-rule="evenodd" clip-rule="evenodd" d="M132.594 27.4118V6.62064L166.904 15.8135V14.756L132.594 5.26465L88.2993 21.9884V23.3444L94.6275 20.6324V34.2795L132.594 27.4118Z" fill="#921D78"/>
<path fill-rule="evenodd" clip-rule="evenodd" d="M140.323 27.2698V14.7559L147.51 16.5642V26.8432L140.323 27.2698Z" fill="#921D78"/>
<path fill-rule="evenodd" clip-rule="evenodd" d="M154.624 26.5716V17.9219L159.713 19.2779L159.922 26.3179L154.624 26.5716Z" fill="#921D78"/>
<path d="M91.8929 44.4817C91.4543 44.7188 90.9049 44.5546 90.6678 44.116C90.4307 43.6774 90.5949 43.128 91.0335 42.8909L91.8929 44.4817ZM232.993 39.5279L233.781 37.9009L233.043 39.5503L230.097 38.3826L226.978 37.239L223.698 36.1247L220.262 35.0471L216.678 34.0115L212.955 33.0252L209.098 32.0929L205.117 31.222L201.019 30.4188L196.811 29.6886L192.502 29.0376L188.098 28.4721L183.608 27.9979L179.039 27.6219L174.398 27.3498L169.694 27.1867L164.932 27.1402L160.123 27.216L155.272 27.4198L150.388 27.7579L145.478 28.2362L140.548 28.8608L135.608 29.6375L130.665 30.5727L125.726 31.6726L120.798 32.9419L115.89 34.3886L111.008 36.0173L106.16 37.8349L101.353 39.8471L96.5958 42.0602L91.8934 44.4794L91.034 42.8886L95.8001 40.4361L100.623 38.1931L105.493 36.1545L110.404 34.3134L115.347 32.6635L120.316 31.1996L125.304 29.9142L130.3 28.8016L135.3 27.8555L140.294 27.0702L145.275 26.4393L150.237 25.9559L155.171 25.6149L160.07 25.4088L164.926 25.333L169.733 25.3795L174.482 25.5431L179.165 25.8187L183.777 26.1976L188.308 26.6758L192.752 27.2464L197.101 27.9032L201.347 28.6409L205.484 29.4521L209.503 30.3316L213.397 31.2719L217.16 32.2685L220.783 33.3151L224.258 34.4053L227.581 35.5334L230.74 36.693L233.731 37.8774L232.993 39.5267V39.5279ZM233.731 37.8785C234.192 38.0685 234.413 38.5978 234.223 39.0588C234.033 39.5198 233.503 39.7403 233.042 39.5503L233.731 37.8785V37.8785ZM75.9201 40.4791L75.3672 38.758L81.2642 36.9433L87.1796 35.2762L93.1059 33.7543L99.0345 32.3742L104.958 31.1313L110.868 30.0233L116.757 29.0479L122.617 28.2L128.439 27.4772L134.216 26.8767L139.939 26.3939L145.602 26.0265L151.195 25.7716L156.711 25.6246L162.142 25.5833L167.48 25.6442L172.717 25.8038L177.846 26.0587L182.856 26.4071L187.742 26.8446L192.496 27.3676L197.108 27.9732L201.573 28.6587L205.881 29.4211L210.024 30.2558L213.996 31.1611L217.788 32.1336L221.392 33.1699L224.801 34.2675L228.007 35.4231L231.003 36.6345L233.781 37.8992L232.993 39.5261L230.29 38.2959L227.362 37.1121L224.218 35.9789L220.866 34.8996L217.314 33.8783L213.57 32.9184L209.645 32.0234L205.545 31.1973L201.278 30.4424L196.853 29.7632L192.279 29.1622L187.562 28.6432L182.712 28.2092L177.737 27.8636L172.644 27.6093L167.442 27.4508L162.138 27.39L156.741 27.4313L151.259 27.5771L145.7 27.8309L140.073 28.196L134.384 28.6753L128.642 29.273L122.857 29.9906L117.034 30.8328L111.182 31.803L105.31 32.9035L99.4249 34.1378L93.5353 35.5093L87.6487 37.0208L81.7746 38.6765L75.9195 40.478L75.9201 40.4791ZM75.9201 40.4791C75.4447 40.6318 74.9355 40.3701 74.7828 39.8953C74.6301 39.4199 74.8919 38.9107 75.3666 38.758L75.9195 40.4791H75.9201Z" fill="#108745"/>
<path d="M165.195 46.2395C164.783 46.5208 164.22 46.4157 163.939 46.0035C163.657 45.5913 163.762 45.0282 164.175 44.7469L165.195 46.2395V46.2395ZM233.059 39.5565L233.714 37.8705L232.999 39.5301L231.084 38.6483L229.159 37.8188L227.226 37.0432L225.282 36.3233L223.329 35.6619L221.366 35.0597L219.391 34.5189L217.406 34.0413L215.41 33.628L213.401 33.2818L211.379 33.0033L209.345 32.7955L207.298 32.6595L205.237 32.5969L203.161 32.6101L201.071 32.7008L198.965 32.8707L196.844 33.1222L194.706 33.4563L192.551 33.8754L190.378 34.3812L188.187 34.9759L185.978 35.6614L183.75 36.4398L181.503 37.3124L179.236 38.2821L176.949 39.3504L174.641 40.5193L172.312 41.7909L169.962 43.1664L167.59 44.6481L165.196 46.2395L164.175 44.7469L166.61 43.1285L169.025 41.6187L171.421 40.2162L173.798 38.9176L176.157 37.7235L178.497 36.6304L180.819 35.6373L183.124 34.7423L185.411 33.9437L187.682 33.2393L189.936 32.6273L192.172 32.1066L194.392 31.6749L196.597 31.3299L198.786 31.071L200.959 30.8959L203.117 30.8017L205.259 30.7885L207.386 30.8522L209.498 30.9929L211.596 31.2082L213.679 31.4941L215.747 31.8506L217.802 32.2754L219.843 32.7668L221.871 33.3225L223.885 33.9397L225.887 34.6183L227.877 35.3548L229.855 36.1476L231.82 36.9955L233.775 37.8957L233.06 39.5554L233.059 39.5565ZM233.774 37.8969C234.225 38.1104 234.417 38.6506 234.203 39.1013C233.99 39.552 233.45 39.7443 232.999 39.5307L233.774 37.8974V37.8969ZM125.323 46.7493L124.496 45.1413L129.205 42.7858L133.795 40.6238L138.272 38.6501L142.638 36.8589L146.896 35.244L151.051 33.8013L155.106 32.5246L159.064 31.4074L162.929 30.4452L166.703 29.6317L170.392 28.9618L173.996 28.4296L177.522 28.0289L180.97 27.7556L184.345 27.6018L187.65 27.5645L190.888 27.6356L194.063 27.8102L197.178 28.0823L200.235 28.4468L203.239 28.8975L206.193 29.4279L209.1 30.0336L211.963 30.7076L214.786 31.4441L217.573 32.2381L220.326 33.0831L223.049 33.9736L225.746 34.903L228.42 35.8663L231.075 36.8578L233.713 37.871L233.059 39.5571L230.434 38.549L227.797 37.5639L225.144 36.608L222.473 35.6872L219.779 34.8066L217.059 33.9724L214.309 33.1894L211.526 32.4631L208.707 31.7989L205.847 31.2036L202.943 30.6817L199.992 30.2385L196.99 29.8815L193.932 29.6134L190.816 29.4423L187.638 29.3723L184.394 29.4096L181.08 29.56L177.693 29.8292L174.229 30.2225L170.684 30.746L167.054 31.4051L163.336 32.2071L159.527 33.1555L155.622 34.2577L151.619 35.5184L147.512 36.9439L143.3 38.5404L138.979 40.3132L134.544 42.2685L129.994 44.4116L125.322 46.7487L125.323 46.7493ZM125.323 46.7493C124.88 46.9778 124.334 46.8027 124.106 46.3589C123.877 45.9151 124.052 45.3697 124.496 45.1413L125.323 46.7493Z" fill="#108745"/>
</svg>
