<svg width="33" height="33" viewBox="0 0 33 33" fill="none" xmlns="http://www.w3.org/2000/svg">
<path fill-rule="evenodd" clip-rule="evenodd" d="M24.0609 19.7753C23.6491 19.5704 21.6306 18.5832 21.2548 18.4457C20.879 18.3095 20.6054 18.2422 20.3305 18.6519C20.0569 19.0589 19.2708 19.9801 19.0318 20.2524C18.7914 20.526 18.5524 20.559 18.142 20.3555C17.7317 20.1493 16.4081 19.7189 14.8399 18.3274C13.62 17.2439 12.7952 15.906 12.5561 15.4963C12.3171 15.0879 12.5299 14.8665 12.7357 14.663C12.9209 14.4802 13.1461 14.1859 13.3519 13.948C13.5578 13.7088 13.6255 13.5383 13.7623 13.2647C13.9004 12.9924 13.8314 12.7545 13.7277 12.5497C13.6255 12.3448 12.8048 10.3332 12.4622 9.51504C12.1292 8.71892 11.7907 8.82754 11.5393 8.81379C11.2989 8.80279 11.0253 8.80004 10.7517 8.80004C10.4782 8.80004 10.0333 8.90179 9.6575 9.31154C9.28032 9.71992 8.22062 10.7085 8.22062 12.7202C8.22062 14.7304 9.69066 16.6733 9.89652 16.9469C10.1024 17.2192 12.791 21.3469 16.9096 23.1165C17.8906 23.5373 18.6546 23.7889 19.2501 23.9759C20.2338 24.288 21.1291 24.244 21.8365 24.1381C22.624 24.0213 24.2653 23.1495 24.608 22.1953C24.9492 21.241 24.9492 20.4229 24.847 20.2524C24.7448 20.0819 24.4712 19.9801 24.0595 19.7753H24.0609ZM16.5697 29.9544H16.5642C14.118 29.9548 11.7166 29.3004 9.61191 28.0596L9.11453 27.7654L3.94452 29.1156L5.32475 24.0996L5.00007 23.5854C3.63246 21.4189 2.90871 18.9115 2.91245 16.3529C2.91521 8.85917 9.0413 2.76243 16.5753 2.76243C20.2227 2.76243 23.6519 4.17867 26.23 6.74717C27.5016 8.00747 28.5095 9.50619 29.1953 11.1566C29.8812 12.8071 30.2314 14.5765 30.2256 16.3625C30.2229 23.8563 24.0968 29.9544 16.5697 29.9544ZM28.1919 4.79605C26.6696 3.27107 24.8584 2.06192 22.8631 1.23865C20.8679 0.415393 18.7283 -0.00560483 16.5683 5.6344e-05C7.51323 5.6344e-05 0.140925 7.33567 0.138162 16.3515C0.133966 19.2208 0.890279 22.0404 2.33079 24.5259L0 33L8.70971 30.7258C11.1191 32.0322 13.8191 32.7167 16.5628 32.7168H16.5697C25.6248 32.7168 32.9972 25.3811 32.9999 16.3639C33.0066 14.2152 32.5851 12.0864 31.7598 10.1008C30.9345 8.11525 29.7218 6.31222 28.1919 4.79605Z" fill="#5B2F57"/>
</svg>
