<svg width="22" height="18" viewBox="0 0 22 18" fill="none" xmlns="http://www.w3.org/2000/svg">
<path fill-rule="evenodd" clip-rule="evenodd" d="M8.98323 0.81888C8.98342 0.648254 8.91852 0.48185 8.79763 0.342955C8.67673 0.204059 8.50589 0.0996234 8.309 0.0442622C8.11212 -0.011099 7.89904 -0.0146151 7.6996 0.034206C7.50015 0.083027 7.32432 0.181742 7.19671 0.316537L0.210285 7.67988C0.0739956 7.8235 0 8.00026 0 8.18222C0 8.36418 0.0739956 8.54094 0.210285 8.68456L7.19671 16.0479C7.32432 16.1827 7.50015 16.2814 7.6996 16.3302C7.89904 16.3791 8.11212 16.3755 8.309 16.3202C8.50589 16.2648 8.67673 16.1604 8.79763 16.0215C8.91852 15.8826 8.98342 15.7162 8.98323 15.5456V12.2811C14.3518 12.3728 16.9308 13.2081 18.2263 14.1163C19.4579 14.9794 19.6834 15.9947 19.918 17.0583L19.9789 17.3324C20.0236 17.5285 20.1543 17.7045 20.3463 17.8271C20.5383 17.9498 20.7783 18.0107 21.0212 17.9985C21.2642 17.9862 21.4933 17.9016 21.6654 17.7605C21.8376 17.6195 21.9409 17.4317 21.956 17.2326C22.1267 14.9843 21.8702 11.7264 19.9329 9.00119C18.0526 6.35611 14.6662 4.32219 8.98323 4.10947V0.81888Z" fill="#921D78"/>
</svg>
