<svg width="43" height="44" viewBox="0 0 43 44" fill="none" xmlns="http://www.w3.org/2000/svg">
<path d="M34.766 16.7826H31.4725C31.4712 15.4728 30.9503 14.217 30.0241 13.2908C29.0979 12.3646 27.8421 11.8437 26.5322 11.8423V8.54883C28.7152 8.55144 30.8079 9.41977 32.3515 10.9633C33.8951 12.5069 34.7634 14.5997 34.766 16.7826V16.7826Z" fill="#F8C301"/>
<path d="M41.353 16.7827H38.0595C38.056 13.7266 36.8404 10.7966 34.6794 8.63555C32.5184 6.47452 29.5884 5.25892 26.5322 5.25543V1.96191C30.4616 1.96627 34.2288 3.52915 37.0073 6.30764C39.7858 9.08614 41.3487 12.8533 41.353 16.7827V16.7827Z" fill="#F8C301"/>
<path d="M38.0599 43.1301H37.7799C5.42114 41.2693 0.826689 13.9661 0.184454 5.63348C0.0840775 4.32719 0.506697 3.03452 1.35935 2.0398C2.21201 1.04509 3.42487 0.4298 4.73115 0.329276C4.86179 0.319395 4.99298 0.314455 5.12473 0.314455H13.8031C14.4628 0.313816 15.1074 0.511258 15.6535 0.881205C16.1996 1.25115 16.622 1.77656 16.8661 2.38937L19.3692 8.54824C19.6102 9.14691 19.67 9.8032 19.5412 10.4356C19.4124 11.0679 19.1006 11.6485 18.6446 12.1052L15.137 15.6458C15.6827 18.7603 17.173 21.6317 19.406 23.8705C21.6389 26.1093 24.5063 27.6072 27.6194 28.1611L31.1929 24.6206C31.6565 24.1696 32.2425 23.8651 32.878 23.7451C33.5135 23.625 34.1702 23.6947 34.7664 23.9454L40.9746 26.432C41.5782 26.6838 42.0932 27.1095 42.4539 27.655C42.8146 28.2005 43.0048 28.841 43.0001 29.495V38.1899C43.0001 39.5001 42.4797 40.7567 41.5532 41.6832C40.6267 42.6096 39.3701 43.1301 38.0599 43.1301ZM5.12473 3.60797C4.90847 3.60732 4.6942 3.64927 4.49416 3.73143C4.29412 3.81359 4.11222 3.93434 3.95884 4.0868C3.80547 4.23925 3.68363 4.42043 3.60027 4.61997C3.51691 4.81952 3.47368 5.03353 3.47303 5.24979C3.47303 5.2959 3.47467 5.34146 3.47797 5.38647C4.23548 15.1353 9.09341 38.1899 37.9611 39.8366C38.3969 39.8627 38.8253 39.7147 39.152 39.425C39.4787 39.1354 39.677 38.7278 39.7033 38.292L39.7066 38.1899V29.495L33.4984 27.0084L28.7722 31.7016L27.9817 31.6028C13.6549 29.8079 11.7118 15.4811 11.7118 15.3329L11.6129 14.5424L16.2897 9.81624L13.8196 3.60797H5.12473Z" fill="#F8C301"/>
</svg>
