<svg width="58" height="58" viewBox="0 0 58 58" fill="none" xmlns="http://www.w3.org/2000/svg">
<circle cx="28.8704" cy="28.8734" r="28.8704" fill="#108745"/>
<path d="M37.8001 9.36621H18.3798C17.644 9.36621 16.9383 9.64807 16.4181 10.1498C15.8978 10.6515 15.6055 11.3319 15.6055 12.0415V44.1445C15.6055 44.854 15.8978 45.5345 16.4181 46.0362C16.9383 46.5379 17.644 46.8197 18.3798 46.8197H37.8001C38.5359 46.8197 39.2416 46.5379 39.7619 46.0362C40.2822 45.5345 40.5745 44.854 40.5745 44.1445V12.0415C40.5745 11.3319 40.2822 10.6515 39.7619 10.1498C39.2416 9.64807 38.5359 9.36621 37.8001 9.36621ZM18.3798 12.0415H37.8001V36.1187H18.3798V12.0415ZM18.3798 44.1445V38.794H37.8001V44.1445H18.3798Z" fill="#F8C301"/>
</svg>
