<svg width="19" height="24" viewBox="0 0 19 24" fill="none" xmlns="http://www.w3.org/2000/svg">
<path d="M9.5 0C6.98136 0.00294898 4.56672 0.997261 2.78577 2.76482C1.00482 4.53238 0.00298142 6.92886 1.0107e-05 9.42857C-0.00300648 11.4713 0.669311 13.4587 1.91383 15.0857C1.91383 15.0857 2.17292 15.4243 2.21524 15.4731L9.5 24L16.7882 15.4689C16.8262 15.4234 17.0862 15.0857 17.0862 15.0857L17.087 15.0831C18.3309 13.4568 19.0029 11.4704 19 9.42857C18.997 6.92886 17.9952 4.53238 16.2142 2.76482C14.4333 0.997261 12.0186 0.00294898 9.5 0ZM9.5 12.8571C8.81676 12.8571 8.14886 12.6561 7.58076 12.2793C7.01266 11.9026 6.56989 11.3671 6.30842 10.7406C6.04695 10.1141 5.97854 9.42477 6.11184 8.75969C6.24513 8.09461 6.57414 7.4837 7.05727 7.00421C7.5404 6.52471 8.15594 6.19817 8.82605 6.06588C9.49617 5.93359 10.1908 6.00148 10.822 6.26098C11.4532 6.52048 11.9928 6.95993 12.3723 7.52376C12.7519 8.08759 12.9545 8.75046 12.9545 9.42857C12.9534 10.3375 12.5891 11.2089 11.9415 11.8517C11.2939 12.4944 10.4159 12.856 9.5 12.8571Z" fill="#F8C301"/>
</svg>
