<svg width="111" height="111" viewBox="0 0 111 111" fill="none" xmlns="http://www.w3.org/2000/svg">
<circle cx="55.5" cy="55.5" r="55.5" fill="#921D78"/>
<path fill-rule="evenodd" clip-rule="evenodd" d="M33.0938 46.4221C33.0938 47.8395 34.1228 47.7188 35.3355 47.5391C40.897 46.7155 48.7113 47.4304 53.9071 49.5148C56.7895 50.6711 59.6123 51.7787 62.2643 53.3919C62.7008 53.6574 62.9912 53.9044 63.4686 54.0157V54.297C62.8136 54.4495 61.8689 54.8822 61.2648 55.1869C58.2666 56.6992 56.0586 57.9433 53.2857 59.864C52.644 60.3084 52.0838 60.83 51.5017 61.3143C50.986 61.7434 51.274 61.7437 50.4022 61.7618C44.4985 61.8838 38.5762 61.7501 32.6719 61.7501L23.1084 61.749C21.9241 61.7411 21.0001 61.6975 21.0001 62.875C21.0001 64.3816 22.8567 64 24.3751 64C23.5554 65.2241 21.0001 66.052 21.0001 67.5156C21.0001 68.0774 21.6749 68.3594 22.1251 68.3594C23.2513 68.3594 26.7531 64.5291 27.9627 64.072C28.5304 63.8575 30.5209 64 31.2657 64C30.8747 64.7388 29.4407 66.0832 28.7685 66.8465L23.4255 72.4723C22.9067 72.9863 22.6575 73.3885 22.1622 73.8809C21.7368 74.3037 21 74.7942 21 75.5312C21 76.1975 21.5715 76.6562 22.125 76.6562C22.8135 76.6562 24.9847 74.0007 25.6764 73.317L30.7445 67.8383C31.2855 67.1911 31.9487 66.7151 32.4897 66.0679C33.0484 65.3995 33.4975 64.7853 34.1728 64.2354C34.6142 63.8759 34.8924 63.9897 35.6226 63.9977C36.2321 64.0043 36.8433 64 37.4531 64C36.8695 65.103 31.1704 72.7603 30.2615 73.9646L21.9002 85.4313C21.5267 85.9725 21 86.4846 21 87.203C21 87.6139 21.7009 88.1873 22.125 88.1873C22.9139 88.1873 24.1181 86.0696 24.575 85.4341C25.3491 84.3573 26.0701 83.4428 26.847 82.3623L33.4746 73.2402C33.8901 72.6885 34.186 72.243 34.5996 71.6932C35.0109 71.1468 35.3584 70.7172 35.7378 70.1595L39.0565 65.6033C39.4126 65.0859 39.9634 64.605 40.1249 64H42.7968L31.0312 86.5467C30.3934 87.8225 28.064 90.9998 30.7032 90.9998C31.2599 90.9998 31.6515 90.0981 31.8757 89.6411L39.8911 74.3129C40.1983 73.6927 40.4266 73.2446 40.7341 72.6246L43.4533 67.469C43.8889 66.5908 44.9984 64.8116 45.1874 64H47.8593L43.7978 76.954C42.7707 80.1896 41.7043 83.3302 40.7983 86.6107C40.5413 87.5412 38.6649 90.9998 40.9687 90.9998C42.1517 90.9998 42.2997 89.0398 42.6016 88.1328C42.9861 86.9773 43.3498 85.8827 43.6912 84.7224L46.8923 74.4236C47.2147 73.4689 50.0512 64.6982 50.1093 64H52.9218L50.8723 83.466C50.6079 85.3591 50.25 88.4142 50.25 90.1561C50.25 90.6118 50.8611 90.9998 51.375 90.9998C52.6515 90.9998 52.3937 89.5901 52.5593 88.3873L53.3022 81.3959C53.4649 80.1331 53.5038 79.0854 53.6665 77.8226C54.1863 73.789 54.4101 69.5484 54.9496 65.4653C55.2097 63.4978 54.8837 64 57.7031 64C58.3124 64 58.1001 64.6741 58.1864 65.3447C58.2584 65.9041 58.3358 66.6767 58.3825 67.1174L60.2091 84.697C60.406 86.4482 60.3586 88.2835 60.7714 90.0408C61.1027 91.4513 62.9062 91.0077 62.9062 90.2967C62.9062 88.0736 62.5474 85.8891 62.32 83.711C61.9743 80.4007 61.1201 73.5991 60.9375 70.6093C60.8108 68.537 60.2805 66.069 60.2343 64H63.0469C63.1329 65.0351 69.7478 85.5131 70.5178 88.0288C70.8024 88.9588 71.1161 90.9998 72.1874 90.9998C74.458 90.9998 72.6639 87.6965 72.3874 86.7218C70.6878 80.7297 68.6559 74.919 66.8258 68.9397C66.3322 67.3271 65.6809 65.6486 65.2968 64H67.9686C68.1645 64.8408 68.7189 65.5 69.0936 66.2499C69.4672 66.9976 69.8048 67.7484 70.2458 68.4727L76.0704 79.6638C76.6758 80.7397 78.0936 80.3592 78.0936 79.0467C78.0936 78.6199 77.4348 77.59 77.203 77.1249L70.3594 64H73.1719C73.3491 64.6639 77.3358 69.8872 77.9729 70.7302C78.8196 71.8505 79.5656 72.9008 80.403 74.0656C81.3392 75.3675 90.886 88.6794 91.379 88.9779C91.7679 89.2132 94.2092 89.1921 92.1176 86.3979L82.3938 73.0593C81.6375 72.0074 80.9247 71.0765 80.2022 70.0477L77.9918 67.055C77.276 66.0959 76.4015 65.0539 75.8437 64C76.4535 64 77.0647 64.0042 77.6743 63.9976C79.5071 63.9777 79.2679 64.4092 80.9397 66.2166C82.1185 67.4911 83.3502 68.6651 84.5291 69.9396L89.8005 75.637C90.2698 76.102 91.2599 77.3593 91.875 77.3593C92.6571 77.3593 93 76.8184 93 76.0937C93 75.5918 88.8415 71.4178 88.3179 70.7914C88.0717 70.4968 87.8256 70.286 87.5508 70.0117C86.9233 69.3852 82.3692 64.6386 82.0312 64C87.0642 64 85.5057 63.5379 89.6691 66.9088C90.0513 67.2182 90.2984 67.4044 90.6887 67.7174C91.1751 68.1074 91.4418 68.3592 92.1562 68.3592C92.8152 68.3592 92.9999 67.5878 92.9999 67.0936C92.9999 66.4297 90.0966 64.7042 89.6249 63.9999C91.1433 63.9999 92.9999 64.3815 92.9999 62.8749C92.9999 61.3123 90.8107 61.7499 89.2031 61.7499H54.6095C55.3049 60.7114 59.2015 58.6638 60.6095 57.9061C61.0717 57.6573 61.4782 57.5472 61.9696 57.2975C70.2271 53.1015 81.3992 52.5371 90.4174 55.6136C91.3171 55.9206 92.9999 56.7011 92.9999 54.9998C92.9999 53.7658 91.1569 53.5619 90.242 53.2577C83.175 50.9077 73.8438 50.6927 66.8561 53.0552C66.3097 53.24 66.3041 53.361 65.8291 53.0745C63.8354 51.8718 62.5688 50.8941 60.2813 49.7499C52.6996 45.9573 42.9754 43.9828 34.2528 45.4711C33.7918 45.5498 33.0941 45.8053 33.0941 46.4218L33.0938 46.4221Z" fill="white"/>
<path fill-rule="evenodd" clip-rule="evenodd" d="M80.0624 43.6093H70.3594C67.0355 43.6093 67.2263 39.6399 69.4291 39.1633C70.685 38.8916 71.5451 39.2841 71.6269 37.7049C71.8314 33.7501 75.5538 32.9488 77.6415 35.0615C78.3283 35.7565 78.5684 36.4586 78.6548 37.7045C78.7747 39.4326 79.5609 38.8449 80.8476 39.168C83.1204 39.7387 83.0225 43.6093 80.0625 43.6093H80.0624ZM59.6719 33.3437C59.6719 37.2867 62.2079 39.6976 65.7187 40.5156C65.3813 41.9641 65.9233 43.2991 66.741 44.2746C67.2349 44.8638 68.4979 45.7186 69.5156 45.7186H80.4843C82.8014 45.7186 84.4867 43.739 84.6407 41.4505C84.7831 39.3341 82.8635 36.9999 80.7655 36.9999C80.7655 34.4057 78.1566 31.7969 75.5624 31.7969C74.1122 31.7969 73.1066 31.8532 71.8839 32.7589C70.8994 33.4882 70.0351 34.5485 69.6848 35.7629C69.2523 37.2625 69.9379 36.6497 68.4469 37.1968C68.2368 37.274 67.9684 37.4053 67.7796 37.514C67.3981 37.7335 66.961 37.9669 66.8437 38.4062C61.0514 38.4062 60.1079 30.3161 65.4138 28.82C68.9935 27.8106 70.4571 30.6719 71.0624 30.6719C74.5651 30.6719 70.8343 26.4531 67.2656 26.4531C64.9011 26.4531 63.2866 26.9452 61.6717 28.5936C60.718 29.5671 59.6719 31.476 59.6719 33.3437L59.6719 33.3437Z" fill="white"/>
<path fill-rule="evenodd" clip-rule="evenodd" d="M31.1251 28.5625C31.1251 27.52 31.6975 26.708 32.5059 26.4277C33.6299 26.0379 34.6089 26.7286 34.8735 25.1391C35.114 23.695 34.8486 23.2794 35.7265 22.3358C37.4029 20.5339 40.8901 21.0893 41.6494 23.3818C41.817 23.8878 41.7607 24.3723 41.8427 25.0166C42.0536 26.6749 42.8596 26.0411 44.1225 26.393C46.2866 26.9959 46.0941 30.8124 43.5 30.8124H33.2345C31.9545 30.8124 31.1251 29.8287 31.1251 28.5624V28.5625ZM38.0677 19H38.6623C40.6357 19.1003 42.5551 20.1952 43.5021 22.2322C43.7897 22.8508 43.8921 23.4721 44.0624 24.2032C45.8765 24.2436 47.8593 26.2823 47.8593 28.1406V28.9844C47.8593 31.0789 45.7651 33.0625 43.0781 33.0625H33.6563C29.1322 33.0625 27.5456 28.2568 30.0376 25.5062C30.5574 24.9324 31.7415 24.2238 32.672 24.2032C32.8486 23.445 32.9447 22.8029 33.2782 22.1376C34.287 20.1263 36.1596 19.0965 38.0677 19.0001V19Z" fill="white"/>
<path fill-rule="evenodd" clip-rule="evenodd" d="M21 50.7812C21 52.7316 23.1068 51.4889 23.9525 51.062L27.908 49.3925C29.0559 49.0153 29.5781 48.8759 29.5781 47.9688C29.5781 46.6871 28.5143 46.8258 27.6498 47.1636L24.0475 48.6256C23.1831 49.0284 21 49.6833 21 50.7813V50.7812Z" fill="white"/>
<path fill-rule="evenodd" clip-rule="evenodd" d="M78.375 83.6874C78.375 84.5112 78.9021 85.0275 79.2677 85.7478C79.6087 86.4196 79.8883 86.9922 80.203 87.625C80.5299 88.2824 80.8733 88.8121 81.1884 89.4521C81.5395 90.1653 81.8203 90.9999 82.5937 90.9999C83.274 90.9999 83.7188 90.5552 83.7188 89.8749C83.7188 89.4207 82.1941 86.688 81.8908 86.078C81.3747 85.0403 80.3429 82.7031 79.5 82.7031C79.0759 82.7031 78.375 83.2765 78.375 83.6874Z" fill="white"/>
</svg>
