<svg width="111" height="111" viewBox="0 0 111 111" fill="none" xmlns="http://www.w3.org/2000/svg">
<circle cx="55.5" cy="55.5" r="55.5" fill="#921D78"/>
<path d="M37.3732 37.8586C39.6089 37.8586 41.7531 36.9708 43.3339 35.3895C44.9146 33.8088 45.803 31.6647 45.803 29.4293C45.803 27.1935 44.9146 25.0498 43.3339 23.4686C41.7531 21.8878 39.6091 21 37.3732 21C35.1379 21 32.9937 21.8878 31.4129 23.4686C29.8322 25.0497 28.9438 27.1934 28.9438 29.4293C28.9438 31.6646 29.8322 33.8088 31.4129 35.3895C32.9937 36.9706 35.1378 37.8586 37.3732 37.8586ZM37.3732 24.5549C38.6774 24.5549 39.9279 25.0728 40.8501 25.9949C41.7723 26.917 42.2906 28.1674 42.2906 29.4718C42.2906 30.7757 41.7722 32.0266 40.8501 32.9488C39.928 33.8709 38.6776 34.3888 37.3732 34.3888C36.0692 34.3888 34.8184 33.8709 33.8962 32.9488C32.974 32.0266 32.4562 30.7757 32.4562 29.4718C32.4562 28.1675 32.9741 26.9171 33.8962 25.9949C34.8183 25.0727 36.0692 24.5549 37.3732 24.5549Z" fill="white"/>
<path d="M24.771 60.7727C25.0101 62.9453 26.284 64.8685 28.1917 65.9357L31.0012 86.3065C31.1207 87.2884 31.5941 88.1929 32.3324 88.851C33.0708 89.509 34.0233 89.8755 35.0126 89.8819H88.2289C89.1986 89.8819 89.985 89.096 89.985 88.1258C89.985 87.1561 89.1986 86.3697 88.2289 86.3697H84.014V62.6133L87.147 65.1143C87.9055 65.7194 89.0108 65.595 89.6161 64.8365C90.2217 64.0785 90.0972 62.9726 89.3387 62.3674L66.1582 43.8932C65.5173 43.3811 64.6079 43.3816 63.9669 43.8936L52.3766 53.1308L40.7863 62.3679C40.4218 62.6584 40.1881 63.0818 40.1361 63.5448C40.0842 64.0078 40.2179 64.4723 40.5085 64.8364C41.1141 65.5949 42.2196 65.7194 42.9781 65.1142L46.1111 62.6133L46.1106 86.3696H35.0124C34.7179 86.3667 34.4754 86.1369 34.4573 85.8429L31.5424 64.5163C31.4517 63.8739 31.0142 63.3334 30.4041 63.1115C29.8279 62.9008 29.3223 62.5333 28.9439 62.0502C28.5652 61.5676 28.329 60.9889 28.2619 60.3789L26.5338 47.3699C26.4064 46.1851 26.7871 45.0018 27.5809 44.113C28.3746 43.2241 29.5074 42.7126 30.6991 42.7057H32.1812L35.3842 46.7025C35.8527 47.2954 36.5675 47.6398 37.3231 47.6369H37.3794C38.1531 47.6682 38.894 47.3228 39.3674 46.7093L42.5704 42.7126H44.0525C45.2442 42.7199 46.377 43.231 47.1707 44.1198C47.9645 45.0087 48.3452 46.192 48.2178 47.3768C48.1096 48.347 48.8073 49.2211 49.7775 49.3298C50.7472 49.4381 51.6218 48.7399 51.73 47.7701C51.9692 45.5912 51.2719 43.4138 49.8113 41.7791C48.351 40.1445 46.2652 39.2071 44.0736 39.2002H41.8607C41.2399 39.1973 40.6519 39.4795 40.2663 39.9661L37.3725 43.5768L34.4924 39.9803C34.1048 39.4868 33.5114 39.1982 32.8838 39.2002H30.6989C28.5028 39.208 26.414 40.1503 24.9543 41.7912C23.4946 43.4317 22.8019 45.616 23.0492 47.798L24.771 60.7727ZM49.6651 59.8104L65.0761 47.5176L80.4872 59.8104V86.369H49.6713L49.6651 59.8104Z" fill="white"/>
<path d="M71.6659 74.1614C71.6659 72.4053 70.8653 69.2444 65.5337 68.0361H65.4774C62.0073 67.2423 62.0073 65.7954 62.0073 65.3177C62.0073 63.4842 63.6017 62.6483 65.0839 62.6483V62.6487C65.6861 62.6532 66.2731 62.8349 66.7729 63.1711C67.2727 63.5067 67.6622 63.9825 67.8935 64.5381C68.2659 65.4401 69.2993 65.8693 70.2013 65.497C70.6344 65.3181 70.9784 64.9746 71.1582 64.542C71.338 64.1088 71.339 63.6228 71.1602 63.1897C70.3791 61.3287 68.7862 59.9298 66.84 59.3962V58.1321C66.84 57.1619 66.0536 56.376 65.0839 56.376C64.1142 56.376 63.3278 57.1619 63.3278 58.1321V59.3262C61.9588 59.6148 60.7314 60.3659 59.8513 61.4532C58.9713 62.541 58.4921 63.8977 58.4951 65.2967C58.4951 67.0528 59.2958 70.2136 64.6273 71.422H64.6837C68.1468 72.2157 68.1468 73.6626 68.1468 74.1404C68.1468 75.9739 66.5524 76.8098 65.0703 76.8098H65.0698C64.4681 76.8049 63.8806 76.6236 63.3808 76.2875C62.8815 75.9514 62.4915 75.4761 62.2602 74.9205C61.8672 74.0562 60.8588 73.6607 59.9833 74.0273C59.1082 74.3938 58.6819 75.3899 59.0219 76.2763C59.8039 78.1388 61.3998 79.5377 63.349 80.0693V81.2986C63.349 82.2683 64.1354 83.0547 65.1051 83.0547C66.0747 83.0547 66.8612 82.2683 66.8612 81.2986V80.1045C68.2199 79.811 69.4375 79.0614 70.3117 77.9804C71.1858 76.8995 71.6634 75.552 71.6659 74.1614Z" fill="white"/>
</svg>
