<svg width="111" height="111" viewBox="0 0 111 111" fill="none" xmlns="http://www.w3.org/2000/svg">
<circle cx="55.5" cy="55.5" r="55.5" fill="#921D78"/>
<path d="M25.5696 48.8631C25.5696 48.2782 26.0422 47.8019 26.6225 47.8019C27.2029 47.8019 27.6754 48.2782 27.6754 48.8631H25.5684H25.5696ZM25.5696 85.0429V48.8631H27.6767V85.0429L26.6238 86.1041L25.5709 85.0429H25.5696ZM27.6767 85.0429C27.6767 85.6278 27.2042 86.1041 26.6238 86.1041C26.0434 86.1041 25.5709 85.6278 25.5709 85.0429H27.6779H27.6767ZM83.376 86.1041H26.6225V83.9804H83.376L84.4289 85.0416L83.376 86.1028V86.1041ZM83.376 83.9804C83.9564 83.9804 84.4289 84.4566 84.4289 85.0416C84.4289 85.6265 83.9564 86.1028 83.376 86.1028V83.9791V83.9804ZM84.4289 48.4645V85.0429H82.3218V48.4645H84.4289ZM82.3218 48.4645C82.3218 47.8796 82.7944 47.4033 83.3747 47.4033C83.9551 47.4033 84.4276 47.8796 84.4276 48.4645H82.3206H82.3218Z" fill="white"/>
<path d="M21.3515 54.5814C20.9021 54.9528 20.2382 54.8842 19.871 54.4325C19.5025 53.9796 19.5706 53.3105 20.0187 52.9404L21.3515 54.5827V54.5814ZM56.1745 25.8819L21.3515 54.5814L20.0187 52.9391L54.8417 24.2396L56.1822 24.2461L56.1745 25.8819V25.8819ZM54.8417 24.2396C55.2911 23.8682 55.9549 23.9368 56.3221 24.3884C56.6906 24.8414 56.6226 25.5105 56.1745 25.8806L54.8417 24.2383V24.2396ZM88.6336 54.2643L54.834 25.8741L56.1822 24.2448L89.9818 52.6349L88.6336 54.2643ZM89.9818 52.6349C90.4274 53.0102 90.4877 53.6806 90.1166 54.1284C89.7443 54.5775 89.0792 54.6383 88.6349 54.2643L89.9831 52.6349H89.9818Z" fill="white"/>
<path d="M19.0529 86.1114C18.4725 86.1114 18 85.6351 18 85.0501C18 84.4652 18.4725 83.9889 19.0529 83.9889V86.1126V86.1114ZM90.9471 86.1114H19.0529V83.9876H90.9471V86.1114ZM90.9471 83.9876C91.5275 83.9876 92 84.4639 92 85.0488C92 85.6338 91.5275 86.1101 90.9471 86.1101V83.9863V83.9876Z" fill="white"/>
<path d="M47.2823 45.6088C47.8062 45.3565 48.4366 45.5817 48.6857 46.1084C48.9361 46.6364 48.7127 47.2718 48.1901 47.5229L47.2823 45.6075V45.6088ZM39.8673 60.2627H37.7603L37.7718 59.6648L37.8065 59.0708L37.863 58.4845L37.94 57.9047L38.0389 57.3288L38.157 56.7594L38.297 56.1977L38.4575 55.6451L38.6372 55.1002L38.8362 54.5632L39.0545 54.0364L39.2895 53.5162L39.545 53.0063L39.8172 52.508L40.1061 52.0188L40.413 51.5387L40.7365 51.0728L41.0742 50.616L41.4286 50.1721L41.7984 49.7398L42.1836 49.3192L42.5816 48.9128L42.9951 48.5168L43.4214 48.1363L43.8618 47.7688L44.315 47.4155L44.7811 47.0777L45.2587 46.7529L45.7479 46.4449L46.2487 46.1485L46.761 45.8715L47.2823 45.6101L48.1901 47.5255L47.7291 47.7571L47.2784 48.0017L46.8368 48.2606L46.4053 48.5336L45.9855 48.8184L45.5759 49.116L45.1778 49.4266L44.7926 49.7489L44.4177 50.0828L44.0569 50.4283L43.7064 50.7868L43.3713 51.153L43.049 51.5309L42.7396 51.9192L42.4442 52.3178L42.163 52.7242L41.8985 53.1396L41.6469 53.5654L41.4093 53.9989L41.1898 54.4389L40.9843 54.8893L40.7956 55.3461L40.6235 55.8107L40.4682 56.2805L40.3308 56.7581L40.2101 57.2421L40.1074 57.7313L40.0226 58.2283L39.9559 58.7304L39.9071 59.2364L39.8775 59.7476L39.8686 60.2653L39.8673 60.2627ZM39.8673 60.2627C39.8673 60.8476 39.3948 61.3239 38.8144 61.3239C38.234 61.3239 37.7615 60.8476 37.7615 60.2627H39.8686H39.8673ZM55.2019 74.5826V76.7064L54.3096 76.6857L53.4275 76.6235L52.5582 76.52L51.7031 76.3776L50.8608 76.1952L50.0352 75.9752L49.2275 75.7176L48.4379 75.4264L47.6662 75.0977L46.9164 74.7366L46.1871 74.3432L45.4796 73.9187L44.7965 73.4619L44.1378 72.9753L43.5048 72.4602L42.8975 71.9192L42.3197 71.3485L41.7701 70.7532L41.2501 70.1333L40.7622 69.4888L40.3064 68.821L39.8853 68.1312L39.4975 67.422L39.1457 66.6908L38.8311 65.9428L38.5538 65.174L38.3175 64.3911L38.1211 63.5926L37.967 62.7785L37.854 61.9529L37.7872 61.1142L37.7641 60.264H39.8711L39.8904 60.9991L39.9495 61.7225L40.0458 62.4356L40.1806 63.1357L40.3501 63.8268L40.5542 64.5024L40.7943 65.165L41.0665 65.8134L41.3708 66.4462L41.7059 67.0622L42.0732 67.6614L42.4699 68.2412L42.8949 68.8029L43.3482 69.3426L43.8309 69.8654L44.3368 70.3624L44.8697 70.8386L45.4257 71.2916L46.0047 71.7174L46.6056 72.1185L47.2284 72.4939L47.8716 72.842L48.5342 73.1603L49.2147 73.4489L49.9119 73.7078L50.6284 73.9343L51.3577 74.1297L52.1024 74.2902L52.8612 74.4183L53.6303 74.5102L54.4148 74.5658L55.2083 74.5852L55.2019 74.5826ZM55.2019 74.5826C55.7823 74.5826 56.2548 75.0589 56.2548 75.6439C56.2548 76.2288 55.7823 76.7051 55.2019 76.7051V74.5813V74.5826ZM57.983 74.3484L58.3361 76.4411L58.2411 76.4566L58.1435 76.4734L58.046 76.4889L57.9535 76.5032L57.8559 76.5187L57.7571 76.533L57.6582 76.5472L57.5593 76.5588L57.4682 76.5705L57.3744 76.5821L57.2756 76.5951L57.1716 76.6067L57.0714 76.6171L56.9777 76.6261L56.8865 76.6352L56.7876 76.6442L56.6798 76.6533L56.5873 76.6598L56.4936 76.6675L56.387 76.6753L56.2869 76.6805L56.1932 76.6857L56.093 76.6921L55.9941 76.696L55.8991 76.6999L55.799 76.7038L55.6975 76.7064L55.5987 76.709L55.4972 76.7103L55.4022 76.7115L55.3021 76.7128L55.2006 76.7141V74.5904L55.288 74.5917L55.3765 74.5904L55.4716 74.5891L55.5589 74.5878L55.6462 74.5852L55.7335 74.5826L55.8195 74.5788L55.9145 74.5749L56.0019 74.571L56.0879 74.5671L56.1816 74.5619L56.2676 74.5568L56.3472 74.5516L56.441 74.5438L56.5334 74.5373L56.6117 74.5309L56.6965 74.5218L56.7902 74.5128L56.8839 74.5037L56.9674 74.4959L57.0444 74.4869L57.1305 74.4765L57.2216 74.4649L57.3128 74.4532L57.3975 74.4416L57.481 74.4299L57.5645 74.4183L57.6492 74.4053L57.7391 74.3911L57.8213 74.3782L57.906 74.3639L57.9907 74.3484H57.983ZM57.983 74.3484C58.5557 74.25 59.1014 74.6396 59.1977 75.2168C59.2953 75.794 58.9088 76.344 58.3361 76.4411L57.983 74.3484V74.3484ZM64.1218 74.395C63.6146 74.6797 62.9726 74.4959 62.6901 73.9847C62.4077 73.4735 62.59 72.8265 63.0972 72.5417L64.1218 74.3937V74.395ZM70.5353 60.264H72.6423L72.632 60.8269L72.6012 61.3834L72.5524 61.936L72.4844 62.4822L72.3971 63.0257L72.2905 63.5628L72.166 64.0908L72.0247 64.615L71.8655 65.1313L71.6883 65.6387L71.4957 66.1395L71.2839 66.6352L71.0579 67.1205L70.8165 67.5967L70.5584 68.0652L70.2862 68.5233L69.9973 68.9737L69.6956 69.4137L69.3797 69.8408L69.0497 70.2614L68.7056 70.673L68.3487 71.0703L67.9776 71.4572L67.5963 71.8325L67.2021 72.1975L66.7938 72.5495L66.3765 72.8886L65.9476 73.2173L65.5072 73.5318L65.0552 73.8333L64.593 74.1219L64.1218 74.395L63.0972 72.543L63.5132 72.2997L63.9189 72.0461L64.3157 71.7821L64.7009 71.5051L65.0796 71.2165L65.4481 70.9176L65.8038 70.6108L66.1479 70.2912L66.4843 69.9612L66.8079 69.6221L67.1199 69.2753L67.4191 68.9194L67.7067 68.5531L67.9827 68.1752L68.2472 67.7934L68.4963 67.4039L68.7339 67.0053L68.9573 66.5989L69.1666 66.1848L69.363 65.7655L69.5441 65.3384L69.7123 64.9049L69.8638 64.4648L70.0024 64.0184L70.1244 63.5667L70.231 63.1099L70.3234 62.6491L70.3979 62.1832L70.457 61.7096L70.5006 61.232L70.5263 60.7506L70.534 60.2653L70.5353 60.264ZM70.5353 60.264C70.5353 59.679 71.0078 59.2028 71.5882 59.2028C72.1685 59.2028 72.641 59.679 72.641 60.264H70.534H70.5353ZM55.2006 45.9427V43.819L56.093 43.8397L56.9751 43.9018L57.8444 44.0054L58.6995 44.1477L59.5418 44.3302L60.3674 44.5502L61.175 44.8077L61.9647 45.0989L62.7364 45.4276L63.4862 45.7887L64.2155 46.1821L64.923 46.6066L65.6061 47.0635L66.2648 47.5501L66.8978 48.0652L67.5051 48.6074L68.0829 49.1781L68.6324 49.7722L69.1524 50.3934L69.6404 51.0379L70.0962 51.7056L70.5173 52.3954L70.9051 53.1046L71.2569 53.8346L71.5715 54.5839L71.8488 55.3513L72.0851 56.1356L72.2815 56.9328L72.4356 57.7468L72.5486 58.5725L72.6154 59.4111L72.6385 60.2614H70.5314L70.5122 59.5263L70.4531 58.8029L70.3568 58.0898L70.222 57.3883L70.0525 56.6985L69.8484 56.0217L69.6083 55.3604L69.3361 54.7107L69.0317 54.0792L68.6966 53.4631L68.3294 52.8639L67.9327 52.2841L67.5077 51.7225L67.0544 51.1815L66.5716 50.66L66.0657 50.1604L65.5329 49.6855L64.9769 49.2325L64.3978 48.8067L63.7969 48.4055L63.1742 48.0302L62.5309 47.6821L61.8684 47.3637L61.1879 47.0751L60.4907 46.8163L59.7742 46.5898L59.0449 46.3944L58.3002 46.2339L57.5414 46.1058L56.7722 46.0139L55.9877 45.9583L55.1942 45.9388L55.2006 45.9427ZM55.2006 45.9427C54.6203 45.9427 54.1478 45.4665 54.1478 44.8815C54.1478 44.2965 54.6203 43.8203 55.2006 43.8203V45.944V45.9427ZM53.6676 46.0126L53.4788 43.8992L53.5327 43.8941L53.5957 43.8889L53.6329 43.8863L53.6843 43.8811L53.7459 43.8759L53.7972 43.8721L53.8473 43.8682L53.8987 43.8643L53.9616 43.8591L54.013 43.8565L54.0643 43.8526L54.1272 43.8501L54.1645 43.8475L54.2158 43.8436L54.28 43.841L54.3429 43.8371L54.3943 43.8358L54.4328 43.8345L54.4957 43.8306L54.5471 43.8293L54.5985 43.8268L54.6614 43.8255L54.7127 43.8242L54.7654 43.8229L54.818 43.8216L54.8809 43.8203H54.9323L54.9836 43.819H55.0363L55.0877 43.8177L55.1519 43.8164H55.2032V45.9401H55.1519L55.112 45.9388L55.0607 45.9401H55.008L54.9567 45.9414H54.9053L54.8668 45.9427L54.8142 45.944L54.7641 45.9453L54.7127 45.9466L54.6742 45.9479L54.6228 45.9505L54.5715 45.9518L54.533 45.9531L54.4701 45.957L54.4187 45.9583L54.3802 45.9595L54.3429 45.9621L54.2916 45.966L54.23 45.9686L54.1914 45.9712L54.1401 45.9751L54.0887 45.9777L54.0528 45.9803L54.0014 45.9841L53.9513 45.988L53.9 45.9919L53.8627 45.9945L53.8114 45.9997L53.7497 46.0048L53.7112 46.0074L53.665 46.0126H53.6676ZM53.6676 46.0126C53.0898 46.0644 52.5762 45.6347 52.5248 45.051C52.4735 44.4687 52.8997 43.951 53.4788 43.8992L53.6676 46.0126V46.0126Z" fill="white"/>
<path d="M55.1676 67.0264C54.5847 67.0264 54.0326 66.9552 53.51 66.8116C52.9887 66.6692 52.5021 66.457 52.0437 66.1736C51.5904 65.8901 51.1641 65.5368 50.7661 65.1136L52.0039 63.5995C52.4391 64.1275 52.9181 64.5261 53.4445 64.7901C53.9722 65.0541 54.5462 65.1848 55.1663 65.1848C56.024 65.1848 56.6622 65.0166 57.0846 64.6814C57.5045 64.3436 57.7176 63.8324 57.7176 63.1452V63.1362C57.7176 62.6974 57.6136 62.3519 57.4095 62.0969C57.2053 61.842 56.9408 61.6492 56.6134 61.521C56.2885 61.3929 55.8725 61.2816 55.3666 61.1846C55.3474 61.1781 55.3333 61.1742 55.3166 61.1742C55.3012 61.1742 55.287 61.1716 55.2678 61.1651C55.237 61.1587 55.2061 61.1522 55.1715 61.1457C55.1368 61.1393 55.1073 61.1328 55.0752 61.1263C54.2675 60.9775 53.6153 60.8067 53.1132 60.6164C52.6138 60.4301 52.1862 60.0871 51.8293 59.594C51.4749 59.0984 51.2977 58.3969 51.2977 57.4845V57.4755C51.2977 56.5851 51.4556 55.8526 51.7766 55.265C52.095 54.6801 52.5727 54.2388 53.2083 53.9424C53.8451 53.6499 54.6438 53.5011 55.6003 53.5011C56.0228 53.5011 56.44 53.5438 56.8522 53.6344C57.2657 53.7224 57.6727 53.8557 58.0771 54.0356C58.4816 54.2142 58.8835 54.4381 59.2789 54.7047L58.167 56.2434C57.7228 55.9393 57.2849 55.7141 56.8625 55.5653C56.4362 55.4165 56.0163 55.3427 55.6003 55.3427C54.803 55.3427 54.2072 55.507 53.8092 55.8396C53.4111 56.1697 53.2134 56.6666 53.2134 57.3292V57.3396C53.2134 57.7938 53.3277 58.151 53.5562 58.4086C53.7848 58.6674 54.0711 58.8576 54.4203 58.9793C54.7657 59.0997 55.2408 59.2278 55.843 59.3611C55.8674 59.3675 55.8918 59.374 55.9162 59.3805C55.938 59.387 55.9663 59.3934 55.9971 59.3999C56.0279 59.4064 56.0561 59.4115 56.0831 59.418C56.1113 59.4245 56.1396 59.431 56.1704 59.4374C56.8792 59.5927 57.4749 59.7856 57.9539 60.0159C58.4354 60.2424 58.8334 60.6061 59.1518 61.1134C59.4728 61.6168 59.6333 62.3014 59.6333 63.1724V63.1905C59.6333 64.046 59.4664 64.759 59.1364 65.3272C58.8026 65.894 58.307 66.3198 57.6496 66.6032C56.9896 66.8867 56.1627 67.0251 55.1663 67.0251L55.1676 67.0264ZM54.4178 66.3043H56.2629V68.5044H54.4178V66.3043ZM54.4178 52.0283H56.2629V54.1068H54.4178V52.0283Z" fill="white"/>
<path d="M53.4747 73.28C53.0215 72.9137 52.9496 72.2446 53.313 71.7891C53.6763 71.3322 54.3401 71.2598 54.7921 71.626L53.4735 73.28H53.4747ZM57.1816 76.2772L53.4747 73.28L54.7934 71.626L58.5003 74.6233L58.5478 76.2358L57.1829 76.2772H57.1816ZM58.5003 74.6233C58.9535 74.9895 59.0254 75.6586 58.662 76.1142C58.2987 76.571 57.6349 76.6435 57.1829 76.2772L58.5015 74.6233H58.5003ZM53.2757 78.19L57.1354 74.6647L58.5478 76.2358L54.6881 79.7611L53.2757 78.19ZM54.6881 79.7611C54.258 80.1533 53.5916 80.1209 53.2025 79.6874C52.8135 79.2538 52.8456 78.5822 53.2757 78.19L54.6881 79.7611Z" fill="white"/>
<path d="M55.461 40.9611C55.8295 40.5082 56.4933 40.4409 56.9414 40.8123C57.3908 41.1837 57.4576 41.8528 57.0891 42.3045L55.4597 40.9611H55.461ZM52.7608 44.2858L55.461 40.9611L57.0904 42.3045L54.3902 45.6292L52.7749 45.646L52.7608 44.2858V44.2858ZM54.3902 45.6292C54.0217 46.0821 53.3578 46.1494 52.9097 45.778C52.4603 45.4066 52.3936 44.7375 52.7621 44.2858L54.3914 45.6292H54.3902ZM55.2209 48.5359L52.7749 45.646L54.376 44.2703L56.822 47.1602L55.2209 48.5359ZM56.822 47.1602C57.1982 47.6054 57.1456 48.2758 56.7039 48.6549C56.2622 49.0341 55.5971 48.9811 55.2209 48.5359L56.822 47.1602V47.1602Z" fill="white"/>
</svg>
