<svg width="111" height="111" viewBox="0 0 111 111" fill="none" xmlns="http://www.w3.org/2000/svg">
<circle cx="55.5" cy="55.5" r="55.5" fill="#921D78"/>
<path d="M75.8952 26H45.3685C42.0014 26 39.2632 28.7382 39.2632 32.1053V49.1575L24.8943 63.5264C24.4675 63.9533 24.1768 64.4972 24.0591 65.0893C23.9414 65.6814 24.0018 66.2951 24.2328 66.8528C24.4638 67.4105 24.855 67.8872 25.3569 68.2226C25.8588 68.5581 26.4488 68.7372 27.0525 68.7373V84.0007C27.0525 84.8103 27.3741 85.5867 27.9466 86.1592C28.5191 86.7317 29.2956 87.0533 30.1052 87.0533H78.9478C79.7574 87.0533 80.5339 86.7317 81.1064 86.1592C81.6789 85.5867 82.0005 84.8103 82.0005 84.0007V32.1053C82.0005 28.7382 79.2623 26 75.8952 26ZM51.4738 80.948H33.1578V63.8958L42.3158 54.7378L51.4738 63.8958V80.948ZM75.8952 80.948H57.5792V68.7373C58.1835 68.7387 58.7746 68.5604 59.2774 68.2252C59.7803 67.89 60.1722 67.413 60.4034 66.8547C60.6347 66.2963 60.6948 65.6819 60.5762 65.0893C60.4577 64.4968 60.1657 63.9528 59.7374 63.5264L45.3685 49.1575V32.1053H75.8952V80.948Z" fill="white"/>
<path d="M51.4753 38.21H57.5806V44.3153H51.4753V38.21ZM63.686 38.21H69.7913V44.3153H63.686V38.21ZM63.686 50.5153H69.7913V56.526H63.686V50.5153ZM63.686 62.6313H69.7913V68.7366H63.686V62.6313ZM39.2646 65.684H45.37V71.7893H39.2646V65.684Z" fill="white"/>
</svg>
