<svg width="84" height="84" viewBox="0 0 84 84" fill="none" xmlns="http://www.w3.org/2000/svg">
<g filter="url(#filter0_d_192_305)">
<path d="M68.9999 0H28.9995C24.5874 0 20.9994 3.37519 20.9994 7.52551V28.5443L2.17116 46.2555C1.61192 46.7818 1.23109 47.4522 1.07681 48.182C0.922543 48.9118 1.00176 49.6682 1.30444 50.3556C1.60712 51.0431 2.11969 51.6307 2.77733 52.0442C3.43498 52.4576 4.20818 52.6784 4.99919 52.6786V71.4923C4.99919 72.4903 5.42062 73.4473 6.17078 74.153C6.92093 74.8587 7.93836 75.2551 8.99924 75.2551H73C74.0608 75.2551 75.0783 74.8587 75.8284 74.153C76.5786 73.4473 77 72.4903 77 71.4923V7.52551C77 3.37519 73.412 0 68.9999 0ZM36.9996 67.7296H12.9993V46.7108L24.9994 35.4226L36.9996 46.7108V67.7296ZM68.9999 67.7296H44.9996V52.6786C45.7915 52.6802 46.566 52.4605 47.2249 52.0473C47.8838 51.6342 48.3974 51.0462 48.7004 50.358C49.0034 49.6698 49.0822 48.9124 48.9268 48.182C48.7715 47.4516 48.3889 46.7811 47.8277 46.2555L28.9995 28.5443V7.52551H68.9999V67.7296Z" fill="#F8C301"/>
<path d="M37.0007 15.0498H45.0008V22.5753H37.0007V15.0498ZM53.0009 15.0498H61.0009V22.5753H53.0009V15.0498ZM53.0009 30.2175H61.0009V37.6263H53.0009V30.2175ZM53.0009 45.1518H61.0009V52.6774H53.0009V45.1518ZM21.0005 48.9146H29.0006V56.4401H21.0005V48.9146Z" fill="#F8C301"/>
</g>
<defs>
<filter id="filter0_d_192_305" x="0" y="0" width="84" height="83.2549" filterUnits="userSpaceOnUse" color-interpolation-filters="sRGB">
<feFlood flood-opacity="0" result="BackgroundImageFix"/>
<feColorMatrix in="SourceAlpha" type="matrix" values="0 0 0 0 0 0 0 0 0 0 0 0 0 0 0 0 0 0 127 0" result="hardAlpha"/>
<feOffset dx="3" dy="4"/>
<feGaussianBlur stdDeviation="2"/>
<feComposite in2="hardAlpha" operator="out"/>
<feColorMatrix type="matrix" values="0 0 0 0 0 0 0 0 0 0 0 0 0 0 0 0 0 0 0.25 0"/>
<feBlend mode="normal" in2="BackgroundImageFix" result="effect1_dropShadow_192_305"/>
<feBlend mode="normal" in="SourceGraphic" in2="effect1_dropShadow_192_305" result="shape"/>
</filter>
</defs>
</svg>
