<svg width="111" height="111" viewBox="0 0 111 111" fill="none" xmlns="http://www.w3.org/2000/svg">
<circle cx="55.5" cy="55.5" r="55.5" fill="#921D78"/>
<path d="M57.2584 18H57.2598C65.4929 24.031 73.7741 29.9891 82.025 35.9939C81.1185 37.4009 80.2147 38.8079 79.3027 40.2106C78.3439 39.5188 77.3906 38.8167 76.429 38.1278C76.4249 46.6401 76.4387 55.1539 76.4221 63.6663C74.8718 65.2251 73.2555 66.7095 71.6116 68.156C71.6075 57.0835 71.6116 46.011 71.6102 34.9371C66.8203 31.364 62.0249 27.7982 57.2337 24.2281C52.3282 27.7982 47.4269 31.3772 42.5256 34.9561C42.5242 43.9589 42.527 52.9616 42.5242 61.9644C40.9189 61.9658 39.3135 61.9673 37.7068 61.9644C37.7041 54.1118 37.7082 46.2592 37.7054 38.4066C36.9365 38.9554 36.1785 39.5202 35.4095 40.069C34.5003 38.6664 33.602 37.2593 32.6899 35.8596C34.7878 34.3197 36.9007 32.8017 39.0026 31.2677C39.0054 28.4667 39.0013 25.6643 39.0054 22.8619C41.0275 22.8707 43.0511 22.8444 45.0746 22.8765C45.0512 24.2018 45.0801 25.5271 45.0581 26.8524C49.1382 23.923 53.1962 20.9571 57.2584 18Z" fill="white" stroke="white" stroke-width="0.09375"/>
<path d="M55.0903 36.7285C56.1839 36.7241 57.2775 36.7358 58.3711 36.7227C58.3986 37.6261 58.3753 38.5296 58.3835 39.4331C59.7275 39.5411 61.0412 39.9542 62.2297 40.6271C61.8955 41.8677 61.5268 43.0982 61.2118 44.3446C60.2447 43.9141 59.2942 43.3872 58.2363 43.2558C57.4109 43.1478 56.5085 43.0763 55.7506 43.5127C55.2141 43.7739 54.9747 44.5446 55.2526 45.0949C55.4562 45.4087 55.7299 45.6685 56.0395 45.8626C57.4811 46.7895 59.1786 47.185 60.557 48.233C61.5117 48.9161 62.2944 49.9203 62.597 51.1128C63.0083 52.7431 62.7841 54.5954 61.8212 55.9645C60.9697 57.2139 59.6188 57.9772 58.2267 58.329C58.2116 59.3507 58.2253 60.3724 58.2198 61.3956C57.1221 61.3971 56.0243 61.3971 54.9266 61.3956C54.9252 60.4542 54.928 59.5127 54.9252 58.5728C53.3501 58.4107 51.7627 57.9816 50.4448 57.0168C50.786 55.7528 51.1368 54.4917 51.4683 53.2263C52.7737 54.0349 54.2071 54.6932 55.7396 54.7472C56.5154 54.7603 57.3999 54.6961 57.9791 54.0772C58.4138 53.6291 58.4605 52.8833 58.1978 52.3272C57.9667 51.8995 57.5746 51.6047 57.1798 51.3667C55.7107 50.5756 54.0641 50.1465 52.7352 49.0737C51.6636 48.2622 50.8699 46.9836 50.775 45.5707C50.5989 44.0323 51.0941 42.4078 52.1465 41.3218C52.9429 40.4592 54.0132 39.9659 55.093 39.6477C55.0862 38.6756 55.0903 37.702 55.0903 36.7285Z" fill="white" stroke="white" stroke-width="0.09375"/>
<path d="M20.7345 63.4444C23.9163 63.44 27.0981 63.4444 30.2799 63.4429C30.2854 64.3829 30.2799 65.3229 30.284 66.2643C31.2786 65.6513 32.3309 65.1185 33.4617 64.8675C34.5443 64.5916 35.6641 64.5712 36.7701 64.577C43.1901 64.5741 49.6101 64.5624 56.0301 64.5624C57.9023 64.5581 59.7924 64.9945 61.4321 65.9709C63.4611 67.1488 65.0417 69.1937 65.6566 71.5685C66.0665 73.1755 66.1505 74.927 65.6374 76.5194C67.9828 76.0305 70.2264 74.9051 71.9803 73.1697C72.847 72.3318 73.5678 71.3481 74.2982 70.3818C75.4524 68.9602 76.9147 67.7867 78.597 67.1707C81.8916 65.9418 85.709 67.0116 88.2484 69.4798C89.1246 70.3176 90.0256 71.2547 90.353 72.4982C90.6419 73.5623 90.4012 74.7183 89.8606 75.6451C89.2415 76.6668 88.4863 77.5878 87.683 78.4505C84.1463 82.3884 79.8392 85.4959 75.2336 87.8561C71.5456 89.7068 67.6224 91.0497 63.5891 91.7225C59.5929 92.4786 55.5197 92.318 51.4795 92.3341C47.0789 92.3341 42.6797 92.3341 38.2805 92.3341C35.4233 92.3779 32.6735 91.2088 30.2854 89.6251C30.2799 90.6599 30.284 91.6948 30.2826 92.7311H20.7345C20.7345 82.9694 20.7331 73.2061 20.7345 63.4444ZM23.7485 66.3723C23.7471 67.5517 23.7471 68.731 23.7485 69.9104C24.86 69.9118 25.9715 69.9118 27.083 69.9104C27.083 68.731 27.0843 67.5517 27.083 66.3723C25.9715 66.3723 24.86 66.3709 23.7485 66.3723ZM32.1961 69.1864C31.5909 69.5674 31.0571 70.1789 30.3033 70.1716C30.2524 75.3678 30.3019 80.5669 30.2785 85.7645C30.6293 85.8272 30.987 85.909 31.2855 86.1279C32.7725 87.1467 34.3503 88.0765 36.085 88.5187C37.0204 88.7873 37.9985 88.8033 38.9614 88.7946C42.4018 88.7946 45.8436 88.7946 49.284 88.7946C52.492 88.7683 55.7013 88.8603 58.9065 88.7158C64.1118 88.4136 69.2525 86.9876 73.9447 84.5837C78.5145 82.2483 82.7294 79.0562 86.1134 75.0336C86.5109 74.5475 86.9278 74.0615 87.1671 73.4601C86.6967 72.6442 85.9662 72.0545 85.2701 71.4692C83.6964 70.3658 81.655 69.8418 79.8213 70.4665C78.3838 70.9438 77.22 72.0618 76.341 73.3258C74.9241 75.3138 73.1221 76.9996 71.0435 78.1688C69.1067 79.224 66.9965 79.9334 64.8271 80.1786C63.457 80.3596 62.0745 80.3012 60.6975 80.3114C55.9269 80.3114 51.1576 80.31 46.3884 80.3129C45.9399 80.3071 45.4584 80.2428 45.0967 79.9349C44.4047 79.4079 44.2273 78.2753 44.7376 77.5484C45.0664 77.0128 45.6772 76.7617 46.2632 76.7734C51.1686 76.7661 56.0741 76.7778 60.9795 76.7675C61.7224 76.75 62.3249 76.0932 62.5133 75.3634C62.7472 74.457 62.6784 73.4849 62.4693 72.5814C62.1502 71.1934 61.2478 70.0111 60.1115 69.2711C58.8624 68.4158 57.3506 68.1151 55.8829 68.1005C49.2785 68.1049 42.6756 68.1151 36.0712 68.1165C34.7218 68.1005 33.3434 68.407 32.1961 69.1864Z" fill="white" stroke="white" stroke-width="0.09375"/>
</svg>
