<svg width="111" height="111" viewBox="0 0 111 111" fill="none" xmlns="http://www.w3.org/2000/svg">
<circle cx="55.5" cy="55.5" r="55.5" fill="#921D78"/>
<path d="M70.3733 85.1533H56.7349C54.7605 85.1533 53.1621 83.546 53.1621 81.5805L53.1628 70.1465H44.9063V81.5715C44.9063 83.5459 43.2989 85.1443 41.3335 85.1443H27.7041C25.7297 85.1443 24.1313 83.5369 24.1313 81.5715V56.9499C24.1313 55.9397 24.9578 55.1133 25.968 55.1133C26.9783 55.1133 27.8047 55.9397 27.8047 56.9499V81.4797H41.2413V68.3095C41.2413 67.2992 42.0677 66.4729 43.078 66.4729H55.0078C56.0181 66.4729 56.8444 67.2993 56.8444 68.3095V81.47H70.2811L70.2817 68.5024C70.2817 67.4921 71.1082 66.6657 72.1184 66.6657C73.1287 66.6657 73.9551 67.4921 73.9551 68.5024V81.5802C73.9461 83.5463 72.3387 85.153 70.3733 85.153L70.3733 85.1533Z" fill="white"/>
<path d="M27.3638 57.6736C27.1159 57.6736 26.8769 57.5724 26.6931 57.3892C26.344 57.0221 26.3625 56.443 26.7296 56.0945L48.4041 35.632C48.7436 35.3104 49.2766 35.3014 49.6258 35.6044L60.7389 45.0826C61.1245 45.4132 61.1706 45.9917 60.8401 46.3773C60.5095 46.763 59.931 46.8091 59.5454 46.4785L49.057 37.5424L27.9893 57.4161C27.8144 57.5904 27.5851 57.673 27.3647 57.673L27.3638 57.6736Z" fill="white"/>
<path d="M25.9684 58.784H25.9409L18.5198 58.6642C17.0322 58.6367 15.7368 57.718 15.2225 56.3221C14.7081 54.9262 15.1034 53.3829 16.2239 52.4008L24.3241 45.311V31.1767C24.3241 30.1664 25.1505 29.3401 26.1607 29.3401H33.3794C34.3897 29.3401 35.2161 30.1665 35.2161 31.1767V35.8239L46.6135 25.8864C47.9544 24.7198 49.9108 24.7018 51.2697 25.8498L64.6244 37.1551C65.3957 37.8073 65.4969 38.9739 64.8358 39.7452C64.1836 40.5165 63.017 40.6178 62.2457 39.9566L48.9653 28.7058L34.5832 41.2422C34.0412 41.7195 33.2699 41.8303 32.6178 41.5267C31.9656 41.2326 31.5435 40.5715 31.5435 39.8553V33.0038H27.9982V46.1368C27.9982 46.6691 27.7689 47.1746 27.3736 47.5141L18.8418 54.9806L25.9963 55.0998C27.0066 55.1184 27.8241 55.9537 27.8054 56.964C27.7869 57.9756 26.9694 58.7841 25.9688 58.7841L25.9684 58.784Z" fill="white"/>
<path d="M78.4356 70.302C67.1028 70.302 57.8911 61.0814 57.8911 49.7477C57.8911 38.414 67.1118 29.1934 78.4454 29.1934C89.7791 29.1934 98.9998 38.414 98.9998 49.7477C98.9998 61.0814 89.7785 70.302 78.4356 70.302ZM78.4356 32.8768C69.1323 32.8768 61.5549 40.4447 61.5549 49.7575C61.5549 59.0609 69.1228 66.6382 78.4356 66.6382C87.7484 66.6382 95.3163 59.0704 95.3163 49.7575C95.3253 40.4447 87.7484 32.8768 78.4356 32.8768Z" fill="white"/>
<path d="M78.4555 58.7838C75.1032 58.7838 72.376 56.589 72.376 53.8887C72.376 53.3839 72.7892 52.9701 73.2946 52.9701C73.7995 52.9701 74.2133 53.3833 74.2133 53.8887C74.2133 55.5691 76.1147 56.947 78.4562 56.947C80.7983 56.947 82.6991 55.5786 82.6991 53.8887C82.6991 52.4742 80.642 51.6203 78.6491 50.7939L77.5376 50.3255C75.1038 49.3153 72.3574 48.1763 72.3574 45.5406C72.3574 42.8403 75.0853 40.6455 78.437 40.6455C81.7893 40.6455 84.5165 42.8403 84.5165 45.5406C84.5165 46.0454 84.1033 46.4593 83.5978 46.4593C83.093 46.4593 82.6792 46.0461 82.6792 45.5406C82.6792 43.8603 80.7777 42.4823 78.4363 42.4823C76.0942 42.4823 74.1934 43.8507 74.1934 45.5406C74.1934 46.9551 76.2505 47.8091 78.2434 48.6355L79.3549 49.0948C81.7887 50.1051 84.5441 51.2441 84.5441 53.8798C84.5351 56.5884 81.8079 58.7837 78.4555 58.7837V58.7838Z" fill="white"/>
<path d="M78.4275 42.4733C77.9226 42.4733 77.5088 42.0601 77.5088 41.5546V37.1189C77.5088 36.6141 77.922 36.2002 78.4275 36.2002C78.9323 36.2002 79.3461 36.6134 79.3461 37.1189V41.5546C79.3455 42.0601 78.9419 42.4733 78.4275 42.4733Z" fill="white"/>
<path d="M78.4275 63.3043C77.9226 63.3043 77.5088 62.8911 77.5088 62.3857V57.9499C77.5088 57.4451 77.922 57.0312 78.4275 57.0312C78.9323 57.0312 79.3461 57.4445 79.3461 57.9499V62.3857C79.3455 62.8911 78.9419 63.3043 78.4275 63.3043Z" fill="white"/>
<path d="M49.0385 56.8925C45.7232 56.8925 43.0229 54.1922 43.0229 50.8769C43.0229 47.5616 45.7232 44.8613 49.0385 44.8613C52.3538 44.8613 55.0541 47.5616 55.0541 50.8769C55.0541 54.2012 52.3538 56.8925 49.0385 56.8925ZM49.0385 46.7072C46.7335 46.7072 44.8598 48.5811 44.8598 50.8859C44.8598 53.191 46.7337 55.0647 49.0385 55.0647C51.3436 55.0647 53.2173 53.1908 53.2173 50.8859C53.2173 48.5802 51.3434 46.7072 49.0385 46.7072V46.7072Z" fill="white"/>
</svg>
